<svg id="Layer_1" data-name="Layer 1" xmlns="http://www.w3.org/2000/svg" viewBox="0 0 952.99 669.41"><defs><style>.cls-1{fill:#55fff3;}.cls-2{fill:#8319ce;}.cls-3{fill:#6211ab;}.cls-4,.cls-42,.cls-9{fill:#d6d8e5;}.cls-5{fill:#fafbfc;}.cls-6{fill:#e9eaf2;}.cls-7{fill:#911fff;}.cls-8{fill:#fff;}.cls-9{opacity:0.3;}.cls-42,.cls-9{isolation:isolate;}.cls-10{font-size:11.33px;fill:#404040;font-family:SegoeUI-Semilight, Segoe UI;}.cls-10,.cls-17{font-weight:300;}.cls-11{letter-spacing:-0.05em;}.cls-12{letter-spacing:-0.01em;}.cls-13{letter-spacing:0em;}.cls-14{letter-spacing:0em;}.cls-15{fill:#f0f0f0;}.cls-16{font-size:10.39px;font-family:Arial-BoldMT, Arial;font-weight:700;}.cls-17{font-size:5.2px;font-family:SegoeUI-Light, Segoe UI;}.cls-18{fill:#f5d1bb;}.cls-19,.cls-24,.cls-26,.cls-27,.cls-28,.cls-29,.cls-43,.cls-44,.cls-45,.cls-46,.cls-47,.cls-48,.cls-49{fill:none;stroke-miterlimit:10;}.cls-19{stroke:#adadad;stroke-width:0.19px;}.cls-20{opacity:0.69;}.cls-21{fill:#e0e0e0;}.cls-22{fill:#909090;}.cls-23{opacity:0.75;}.cls-24{stroke:#d40022;}.cls-24,.cls-26{stroke-width:0.94px;}.cls-25{fill:#d40022;}.cls-26{stroke:#6211ab;}.cls-27,.cls-28,.cls-29,.cls-43,.cls-44,.cls-46,.cls-47,.cls-48,.cls-49{stroke:#c25fff;}.cls-27{stroke-width:1.76px;}.cls-28{stroke-width:1.2px;}.cls-29,.cls-46{stroke-linecap:round;}.cls-29{stroke-width:2.8px;}.cls-30{fill:#2b2a30;}.cls-31{fill:#ffcea9;}.cls-32{fill:#f4f4f4;}.cls-33{fill:#bf4b4b;}.cls-34{fill:#e26161;}.cls-35{fill:#ededed;}.cls-36{fill:#3a2c6d;}.cls-37{fill:#bfbfbf;}.cls-38{fill:#e5e5e5;}.cls-39{fill:#38226d;}.cls-40{fill:#9c73ff;}.cls-41{fill:#8c50ff;}.cls-42{opacity:0.4;}.cls-43{stroke-width:1.05px;}.cls-44{stroke-width:0.64px;}.cls-45{stroke:#f400ea;stroke-width:1.11px;}.cls-46{stroke-width:2.12px;}.cls-47{stroke-width:2px;}.cls-48{stroke-width:0.64px;}.cls-49{stroke-width:1.3px;}</style></defs><path class="cls-1" d="M1401,527" transform="translate(-413.01 0.41)"/><path class="cls-2" d="M1366,359.78V0L905-.41V0H413A107.36,107.36,0,0,0,459.5,88,514.25,514.25,0,0,1,667.93,397.66,195.62,195.62,0,0,0,839,552.93a170.9,170.9,0,0,1,109.91,57.91,168,168,0,0,0,258.77-5.48h0a140.79,140.79,0,0,1,88.45-51.61,116.77,116.77,0,0,0,69.9-37.53Z" transform="translate(-413.01 0.41)"/><path class="cls-3" d="M448,2a86.64,86.64,0,0,0,7,26,87.86,87.86,0,0,0,18,26c38.82,39.49,58.23,59.23,83,77,63.6,45.62,98.3,117.35,117,156,39.12,80.86,17.74,100.12,58,148,12.7,15.11,53.6,63.75,118,79,32.68,7.74,53.62,2.67,84,22,16.56,10.54,20,18.16,50,41,24.31,18.48,36.46,27.71,49,33,44.54,18.77,96.26-8.2,140-31,48.33-25.2,43-63.41,112-73,36-5,82-20.71,82-39.85V2Z" transform="translate(-413.01 0.41)"/><path class="cls-4" d="M1145.36,310.36,806.07,114.48a4.37,4.37,0,0,0-4-.53h0l-.34.21-3.7,2.14,2.13,3V347.5a13.16,13.16,0,0,0,5.94,10.3L1145,553.45l.48,3,4.11-2.38h0a4.18,4.18,0,0,0,1.77-3.85V320.66A13.17,13.17,0,0,0,1145.36,310.36Z" transform="translate(-413.01 0.41)"/><path class="cls-5" d="M1147.18,323.05V552.64c0,3.77-2.65,5.32-6,3.42L801.94,360.17a13.16,13.16,0,0,1-5.94-10.3V120.3c0-3.78,2.66-5.34,5.94-3.44l339.29,195.9A13.08,13.08,0,0,1,1147.18,323.05Z" transform="translate(-413.01 0.41)"/><path class="cls-4" d="M1145.36,249.6,806.07,53.7a3.93,3.93,0,0,0-3.78-.39h-.07l-3.78,2.12,1.66,2.69V95.35c0,4.37,2.67,9.45,6,11.33l338.57,195.5.18,3.17,4.29-2.36.1-.07.13-.06h0c1.26-.74,2-2.4,2-4.74V261C1151.31,256.59,1148.64,251.5,1145.36,249.6Z" transform="translate(-413.01 0.41)"/><path class="cls-5" d="M1141.4,305.13,802.1,109.24c-3.28-1.91-5.94-7-5.94-11.33V60.79c0-4.36,2.66-6.38,5.94-4.49l339.3,195.84c3.28,1.9,5.95,7,5.95,11.33v37.15C1147.35,305,1144.68,307,1141.4,305.13Z" transform="translate(-413.01 0.41)"/><path class="cls-6" d="M1130.84,282.23,811.76,98a5.72,5.72,0,0,1-2.34-4.55V80.13c0-1.75,1.06-2.52,2.38-1.8l319,184.22a5.73,5.73,0,0,1,2.38,4.55v13.33C1133.22,282.19,1132.15,283,1130.84,282.23Z" transform="translate(-413.01 0.41)"/><path class="cls-7" d="M1131.43,282.58l-20.63-11.92V251l20.63,11.91a5.7,5.7,0,0,1,2.38,4.55v13.34C1133.81,282.53,1132.74,283.37,1131.43,282.58Z" transform="translate(-413.01 0.41)"/><g id="Search"><path class="cls-8" d="M1126.9,274.26l-2-3.46a3.27,3.27,0,0,0,.91-2.52,9.32,9.32,0,0,0-4.22-7.31c-2.34-1.35-4.23-.26-4.23,2.44a9.35,9.35,0,0,0,4.28,7.38,3.3,3.3,0,0,0,2.44.5l2,3.51c.24.4.62.63.86.49S1127.12,274.68,1126.9,274.26Zm-3-4.58a.28.28,0,0,0-.22,0,.29.29,0,0,0-.13.16,2.41,2.41,0,0,1-1.94-.31,7,7,0,0,1-3.17-5.49c0-2,1.42-2.85,3.17-1.83a7,7,0,0,1,3.16,5.49A2.31,2.31,0,0,1,1123.91,269.68Z" transform="translate(-413.01 0.41)"/></g><path class="cls-9" d="M1118.12,591.45,814.83,410.52c-1.46-.83-1.26-2.3.41-3.27h0a6.27,6.27,0,0,1,5.66-.23L1124.14,588c1.46.84,1.26,2.3-.4,3.27h0A6.32,6.32,0,0,1,1118.12,591.45Z" transform="translate(-413.01 0.41)"/><text class="cls-10" transform="matrix(1, 0.58, 0, 1, 403.21, 96.15)">ww<tspan class="cls-11" x="15.85" y="0">w</tspan><tspan x="23.22" y="0">.class</tspan><tspan class="cls-12" x="48.25" y="0">r</tspan><tspan class="cls-13" x="51.94" y="0">oom-la</tspan><tspan class="cls-14" x="87.19" y="0">y</tspan><tspan x="92.44" y="0">out.it</tspan></text><path class="cls-5" d="M1147.34,323.05V552.64c0,3.77-2.64,5.32-5.94,3.42L802.11,360.17a13.13,13.13,0,0,1-5.94-10.3V120.3c0-3.78,2.65-5.34,5.94-3.44l339.29,195.9A13.07,13.07,0,0,1,1147.34,323.05Z" transform="translate(-413.01 0.41)"/><polygon class="cls-8" points="453.11 209.97 404.58 181.95 404.58 163.76 453.11 191.78 453.11 209.97"/><path class="cls-15" d="M1141.3,323.81V544.9c0,3.64-2.55,5.13-5.74,3.29L808,359a12.68,12.68,0,0,1-5.74-9.93V128c0-3.64,2.56-5.14,5.74-3.3l327.61,189.15A12.63,12.63,0,0,1,1141.3,323.81Z" transform="translate(-413.01 0.41)"/><path class="cls-8" d="M1130,531.9l-75.1-43.36a6.55,6.55,0,0,1-3.16-5v-205c0-1.75,1.41-2.35,3.16-1.34l75.1,43.37a6.51,6.51,0,0,1,3.16,5V530.57C1133.15,532.31,1131.74,532.91,1130,531.9Z" transform="translate(-413.01 0.41)"/><text class="cls-16" transform="matrix(0.97, 0.56, 0, 1, 676.55, 316.3)">CLASSE</text><text class="cls-17" transform="matrix(0.97, 0.56, 0, 1, 693.54, 332.94)">#CJm1YypL</text><path class="cls-15" d="M1101.16,381.35,1064,359.9a5.81,5.81,0,0,1-2.8-4.42v-3.06c0-1.55,1.25-2.08,2.8-1.18l37.16,21.45a5.82,5.82,0,0,1,2.8,4.42v3.06C1104,381.71,1102.7,382.24,1101.16,381.35Z" transform="translate(-413.01 0.41)"/><ellipse class="cls-18" cx="1064.1" cy="355.65" rx="3.19" ry="5.7" transform="translate(-421.23 686.09) rotate(-35.59)"/><path class="cls-8" d="M1098.62,378.3,1070,361.77a1.11,1.11,0,0,1-.54-.85v-.45c0-.3.24-.4.54-.23l28.62,16.53a1.11,1.11,0,0,1,.54.85v.45C1099.16,378.37,1098.92,378.47,1098.62,378.3Z" transform="translate(-413.01 0.41)"/><line class="cls-19" x1="641.51" y1="333.2" x2="717.36" y2="377"/><path class="cls-15" d="M1101.16,395.38,1064,373.92a5.79,5.79,0,0,1-2.8-4.41v-3.06c0-1.55,1.25-2.08,2.8-1.19l37.16,21.46a5.82,5.82,0,0,1,2.8,4.41v3.06C1104,395.74,1102.7,396.27,1101.16,395.38Z" transform="translate(-413.01 0.41)"/><ellipse class="cls-18" cx="1064.1" cy="369.68" rx="3.22" ry="5.64" transform="translate(-429.93 686.89) rotate(-35.49)"/><path class="cls-8" d="M1098.62,392.32,1070,375.8a1.11,1.11,0,0,1-.54-.85v-.45c0-.3.24-.4.54-.23l28.62,16.52a1.11,1.11,0,0,1,.54.85v.45C1099.16,392.39,1098.92,392.49,1098.62,392.32Z" transform="translate(-413.01 0.41)"/><path class="cls-15" d="M1101.16,409.4,1064,388a5.81,5.81,0,0,1-2.8-4.42v-3.06c0-1.55,1.25-2.08,2.8-1.18l37.16,21.45a5.82,5.82,0,0,1,2.8,4.42v3.06C1104,409.76,1102.7,410.29,1101.16,409.4Z" transform="translate(-413.01 0.41)"/><ellipse class="cls-18" cx="1064.1" cy="383.7" rx="3.22" ry="5.64" transform="translate(-438.07 689.49) rotate(-35.49)"/><path class="cls-8" d="M1098.62,406.35,1070,389.82a1.11,1.11,0,0,1-.54-.85v-.45c0-.3.24-.4.54-.23l28.62,16.53a1.11,1.11,0,0,1,.54.85v.45C1099.16,406.42,1098.92,406.52,1098.62,406.35Z" transform="translate(-413.01 0.41)"/><path class="cls-15" d="M1101.16,423.43,1064,402a5.79,5.79,0,0,1-2.8-4.41V394.5c0-1.55,1.25-2.08,2.8-1.19l37.16,21.46a5.82,5.82,0,0,1,2.8,4.41v3.06C1104,423.79,1102.7,424.32,1101.16,423.43Z" transform="translate(-413.01 0.41)"/><ellipse class="cls-18" cx="1064.1" cy="397.73" rx="3.22" ry="5.64" transform="translate(-446.21 692.1) rotate(-35.49)"/><path class="cls-8" d="M1098.62,420.37,1070,403.85a1.11,1.11,0,0,1-.54-.85v-.45c0-.3.24-.4.54-.23l28.62,16.52a1.11,1.11,0,0,1,.54.85v.46C1099.16,420.44,1098.92,420.54,1098.62,420.37Z" transform="translate(-413.01 0.41)"/><path class="cls-15" d="M1101,437.34l-37.16-21.45a5.84,5.84,0,0,1-2.8-4.42v-3.06c0-1.55,1.26-2.08,2.8-1.18L1101,428.68a5.79,5.79,0,0,1,2.8,4.42v3.06C1103.76,437.7,1102.51,438.23,1101,437.34Z" transform="translate(-413.01 0.41)"/><ellipse class="cls-18" cx="1063.91" cy="411.64" rx="3.22" ry="5.64" transform="translate(-454.33 694.57) rotate(-35.49)"/><path class="cls-8" d="M1098.43,434.29l-28.62-16.53a1.11,1.11,0,0,1-.54-.85v-.45c0-.3.24-.4.54-.23l28.62,16.52a1.15,1.15,0,0,1,.53.85v.46C1099,434.36,1098.72,434.46,1098.43,434.29Z" transform="translate(-413.01 0.41)"/><path class="cls-15" d="M1101,451.36l-37.16-21.45a5.82,5.82,0,0,1-2.8-4.41v-3.07c0-1.54,1.26-2.07,2.8-1.18L1101,442.71a5.78,5.78,0,0,1,2.8,4.41v3.06C1103.76,451.73,1102.51,452.26,1101,451.36Z" transform="translate(-413.01 0.41)"/><ellipse class="cls-18" cx="1063.91" cy="425.66" rx="3.22" ry="5.64" transform="translate(-462.47 697.18) rotate(-35.49)"/><path class="cls-8" d="M1098.43,448.31l-28.62-16.52a1.11,1.11,0,0,1-.54-.85v-.46c0-.29.24-.4.54-.22l28.62,16.52a1.12,1.12,0,0,1,.53.85v.45C1099,448.38,1098.72,448.48,1098.43,448.31Z" transform="translate(-413.01 0.41)"/><path class="cls-15" d="M1101.16,465.68,1064,444.22a5.79,5.79,0,0,1-2.8-4.41v-3.06c0-1.55,1.25-2.08,2.8-1.19L1101.16,457a5.82,5.82,0,0,1,2.8,4.41v3.06C1104,466,1102.7,466.57,1101.16,465.68Z" transform="translate(-413.01 0.41)"/><ellipse class="cls-18" cx="1064.1" cy="439.98" rx="3.22" ry="5.64" transform="translate(-470.74 699.95) rotate(-35.49)"/><path class="cls-8" d="M1098.62,462.62,1070,446.1a1.11,1.11,0,0,1-.54-.85v-.45c0-.3.24-.4.54-.23l28.62,16.52a1.11,1.11,0,0,1,.54.85v.46C1099.16,462.69,1098.92,462.79,1098.62,462.62Z" transform="translate(-413.01 0.41)"/><path class="cls-15" d="M1101.16,479.7,1064,458.25a5.81,5.81,0,0,1-2.8-4.42v-3.06c0-1.55,1.25-2.07,2.8-1.18L1101.16,471a5.82,5.82,0,0,1,2.8,4.42v3.06C1104,480.06,1102.7,480.59,1101.16,479.7Z" transform="translate(-413.01 0.41)"/><ellipse class="cls-18" cx="1064.1" cy="454" rx="3.22" ry="5.64" transform="translate(-478.89 702.55) rotate(-35.49)"/><path class="cls-8" d="M1098.62,476.65,1070,460.13a1.14,1.14,0,0,1-.54-.85v-.46c0-.3.24-.4.54-.23l28.62,16.53a1.11,1.11,0,0,1,.54.85v.45C1099.16,476.72,1098.92,476.82,1098.62,476.65Z" transform="translate(-413.01 0.41)"/><path class="cls-8" d="M1041.71,480.93,809.45,346.84c-2.61-1.51-4.72-4.84-4.72-7.45V137.47c0-2.61,2.11-3.51,4.72-2l232.26,134.1c2.61,1.5,4.72,4.84,4.72,7.45V478.94C1046.43,481.55,1044.32,482.44,1041.71,480.93Z" transform="translate(-413.01 0.41)"/><g class="cls-20"><g id="banco"><polygon id="banco-2" class="cls-21" points="397.99 191.8 451.01 222.41 451.01 242.98 397.99 212.37 397.99 191.8"/><g id="scritta"><polygon id="Rectangle_13" data-name="Rectangle 13" class="cls-22" points="401.1 206.45 415.26 214.63 415.26 216.17 401.1 207.99 401.1 206.45"/><polygon id="Rectangle_15" data-name="Rectangle 15" class="cls-22" points="401.1 203.88 408.7 208.27 408.7 209.81 401.1 205.42 401.1 203.88"/></g></g><g id="banco-3"><polygon id="banco-4" class="cls-21" points="397.99 161.14 451.01 191.75 451.01 212.32 397.99 181.71 397.99 161.14"/><g id="scritta-2"><polygon id="Rectangle_13-2" data-name="Rectangle 13-2" class="cls-22" points="401.1 175.79 415.26 183.97 415.26 185.51 401.1 177.34 401.1 175.79"/><polygon id="Rectangle_15-2" data-name="Rectangle 15-2" class="cls-22" points="401.1 173.22 408.7 177.61 408.7 179.15 401.1 174.76 401.1 173.22"/></g></g><g id="banco-5"><polygon id="banco-6" class="cls-21" points="397.99 222.46 451.01 253.07 451.01 273.64 397.99 243.03 397.99 222.46"/><g id="scritta-3"><polygon id="Rectangle_13-3" data-name="Rectangle 13-3" class="cls-22" points="401.1 237.11 415.26 245.29 415.26 246.83 401.1 238.65 401.1 237.11"/><polygon id="Rectangle_15-3" data-name="Rectangle 15-3" class="cls-22" points="401.1 234.54 408.7 238.93 408.7 240.47 401.1 236.08 401.1 234.54"/></g></g><g id="banco-7"><polygon id="banco-8" class="cls-21" points="453.02 223.57 506.04 254.18 506.04 274.75 453.02 244.14 453.02 223.57"/><g id="scritta-4"><polygon id="Rectangle_13-4" data-name="Rectangle 13-4" class="cls-22" points="456.13 238.22 470.29 246.4 470.29 247.94 456.13 239.76 456.13 238.22"/><polygon id="Rectangle_15-4" data-name="Rectangle 15-4" class="cls-22" points="456.13 235.65 463.73 240.04 463.73 241.58 456.13 237.19 456.13 235.65"/></g></g><g id="banco-9"><polygon id="banco-10" class="cls-21" points="453.02 192.91 506.04 223.52 506.04 244.09 453.02 213.48 453.02 192.91"/><g id="scritta-5"><polygon id="Rectangle_13-5" data-name="Rectangle 13-5" class="cls-22" points="456.13 207.56 470.29 215.74 470.29 217.28 456.13 209.1 456.13 207.56"/><polygon id="Rectangle_15-5" data-name="Rectangle 15-5" class="cls-22" points="456.13 204.99 463.73 209.38 463.73 210.92 456.13 206.53 456.13 204.99"/></g></g><g id="banco-11"><polygon id="banco-12" class="cls-21" points="453.02 254.23 506.04 284.84 506.04 305.41 453.02 274.8 453.02 254.23"/><g id="scritta-6"><polygon id="Rectangle_13-6" data-name="Rectangle 13-6" class="cls-22" points="456.13 268.88 470.29 277.06 470.29 278.6 456.13 270.42 456.13 268.88"/><polygon id="Rectangle_15-6" data-name="Rectangle 15-6" class="cls-22" points="456.13 266.31 463.73 270.7 463.73 272.24 456.13 267.85 456.13 266.31"/></g></g><g id="banco-13"><polygon id="banco-14" class="cls-21" points="399.33 253.94 452.36 284.56 452.36 305.12 399.33 274.51 399.33 253.94"/><g id="scritta-7"><polygon id="Rectangle_13-7" data-name="Rectangle 13-7" class="cls-22" points="402.44 268.6 416.61 276.77 416.61 278.31 402.44 270.14 402.44 268.6"/><polygon id="Rectangle_15-7" data-name="Rectangle 15-7" class="cls-22" points="402.44 266.02 410.04 270.41 410.04 271.95 402.44 267.57 402.44 266.02"/></g></g><g id="banco-15"><polygon id="banco-16" class="cls-21" points="522.33 263.59 575.35 294.2 575.35 314.77 522.33 284.15 522.33 263.59"/><g id="scritta-8"><polygon id="Rectangle_13-8" data-name="Rectangle 13-8" class="cls-22" points="525.43 278.24 539.6 286.42 539.6 287.96 525.43 279.78 525.43 278.24"/><polygon id="Rectangle_15-8" data-name="Rectangle 15-8" class="cls-22" points="525.43 275.67 533.03 280.05 533.03 281.6 525.43 277.21 525.43 275.67"/></g></g><polygon id="banco-18" class="cls-21" points="522.33 232.93 575.35 263.54 575.35 284.11 522.33 253.5 522.33 232.93"/><g id="scritta-9"><polygon id="Rectangle_13-9" data-name="Rectangle 13-9" class="cls-22" points="525.43 247.58 539.6 255.76 539.6 257.3 525.43 249.12 525.43 247.58"/><polygon id="Rectangle_15-9" data-name="Rectangle 15-9" class="cls-22" points="525.43 245.01 533.03 249.4 533.03 250.94 525.43 246.55 525.43 245.01"/></g><g id="banco-19"><polygon id="banco-20" class="cls-21" points="522.33 294.25 575.35 324.86 575.35 345.43 522.33 314.81 522.33 294.25"/><g id="scritta-10"><polygon id="Rectangle_13-10" data-name="Rectangle 13-10" class="cls-22" points="525.43 308.9 539.6 317.07 539.6 318.62 525.43 310.44 525.43 308.9"/><polygon id="Rectangle_15-10" data-name="Rectangle 15-10" class="cls-22" points="525.43 306.32 533.03 310.71 533.03 312.26 525.43 307.87 525.43 306.32"/></g></g><g id="banco-21"><polygon id="banco-22" class="cls-21" points="577.35 295.36 630.37 325.97 630.37 346.54 577.35 315.92 577.35 295.36"/><g id="scritta-11"><polygon id="Rectangle_13-11" data-name="Rectangle 13-11" class="cls-22" points="580.46 310.01 594.63 318.18 594.63 319.73 580.46 311.55 580.46 310.01"/><polygon id="Rectangle_15-11" data-name="Rectangle 15-11" class="cls-22" points="580.46 307.44 588.06 311.82 588.06 313.37 580.46 308.98 580.46 307.44"/></g></g><g id="banco-23"><polygon id="banco-24" class="cls-21" points="577.35 264.7 630.37 295.31 630.37 315.88 577.35 285.26 577.35 264.7"/><g id="scritta-12"><polygon id="Rectangle_13-12" data-name="Rectangle 13-12" class="cls-22" points="580.46 279.35 594.63 287.53 594.63 289.07 580.46 280.89 580.46 279.35"/><polygon id="Rectangle_15-12" data-name="Rectangle 15-12" class="cls-22" points="580.46 276.78 588.06 281.17 588.06 282.71 580.46 278.32 580.46 276.78"/></g></g><g id="banco-25"><polygon id="banco-26" class="cls-21" points="577.35 326.01 630.37 356.63 630.37 377.19 577.35 346.58 577.35 326.01"/><g id="scritta-13"><polygon id="Rectangle_13-13" data-name="Rectangle 13-13" class="cls-22" points="580.46 340.67 594.63 348.84 594.63 350.39 580.46 342.21 580.46 340.67"/><polygon id="Rectangle_15-13" data-name="Rectangle 15-13" class="cls-22" points="580.46 338.09 588.06 342.48 588.06 344.02 580.46 339.64 580.46 338.09"/></g></g></g><text x="-413.01" y="0.41"/><path class="cls-18" d="M852.9,364l-33.4-19.28a4,4,0,0,1-1.94-3.07v-9.61c0-1.07.87-1.44,1.94-.82l33.4,19.28a4,4,0,0,1,1.94,3.06v9.62C854.84,364.28,854,364.65,852.9,364Z" transform="translate(-413.01 0.41)"/><g class="cls-23"><path class="cls-24" d="M903.59,255.13s8-26.83,38.59-10.69" transform="translate(-413.01 0.41)"/><polygon class="cls-25" points="522.8 245.06 522.91 244.13 529.05 244.88 524.84 240.36 525.53 239.72 531.51 246.14 522.8 245.06"/></g><g class="cls-23"><path class="cls-26" d="M947.41,251.32s-7.54,27.19-38.1,11.52" transform="translate(-413.01 0.41)"/><polygon class="cls-3" points="502.67 262.96 502.57 263.9 496.42 263.21 500.69 267.69 500.01 268.34 493.95 261.99 502.67 262.96"/></g><g id="_231f20ff" data-name="#231f20ff"><path class="cls-8" d="M840.28,345.28l2.39,3.48c-.78.27-1.6.48-2.4.73,0-.47,0-.95,0-1.42l-1.52-.87a.64.64,0,0,0-.63-.06l-4.35,2.11a.65.65,0,0,1-.62-.08c-.93-.52-1.85-1.07-2.77-1.59a1.44,1.44,0,0,1-.64-1c0-.39.31-.53.68-.33l2.19,1.26a.63.63,0,0,0,.67,0l4.29-2.08a.64.64,0,0,1,.63.07l2.07,1.19C840.27,346.21,840.27,345.74,840.28,345.28Z" transform="translate(-413.01 0.41)"/><path class="cls-8" d="M830.27,340.9l3,1.72a1.92,1.92,0,0,1,.7.69l1.23,2a1.12,1.12,0,0,1,.21.8c-.07.26-.35.33-.65.16a1.92,1.92,0,0,1-.55-.55c-.28-.47-.55-.95-.84-1.42a1.83,1.83,0,0,0-.63-.61c-.74-.44-1.49-.86-2.23-1.29a1.68,1.68,0,0,1-.72-.87C829.61,341.08,829.87,340.74,830.27,340.9Z" transform="translate(-413.01 0.41)"/><path class="cls-8" d="M836.35,348.31c.26-.06.66.2.89.58l.92,1.51a1.84,1.84,0,0,0,.63.64l1.49.85c0-.46,0-.93,0-1.39l2.4,3.49c-.8.25-1.6.48-2.4.72,0-.48,0-.95,0-1.43l-2.07-1.2a2,2,0,0,1-.62-.66c-.45-.72-.9-1.44-1.34-2.17C836,348.82,836,348.36,836.35,348.31Z" transform="translate(-413.01 0.41)"/></g><rect class="cls-27" x="559.15" y="54.11" width="20.14" height="21.4" rx="2.28" transform="translate(-413.84 122.21) rotate(-12.2)"/><polygon class="cls-28" points="781.51 151.15 795.25 166.26 803.5 144.97 781.51 151.15"/><line class="cls-29" x1="266.55" y1="175.21" x2="251.75" y2="194.94"/><line class="cls-29" x1="249.26" y1="177.53" x2="268.99" y2="192.33"/><g id="Girl_12" data-name="Girl 12"><path id="_Контур_" data-name=" Контур " class="cls-30" d="M1005.57,117.51c.92-1.48,8-2.46,10.32,3.54.88,2.27.74,8.07,1.48,11.72s2.48,5.72,3.1,8.65-.39,7.92-7.57,8.8-12.58-1.6-14.26-3.88-1.72-7.11,0-9.73,3.08-4.7,3-8.08Z" transform="translate(-413.01 0.41)"/><path id="_Контур_2" data-name=" Контур 2" class="cls-30" d="M1010.27,116.48s-5.41-1.49-8.6,1.35a7.91,7.91,0,0,0-2.27,7.89c.44,1.68,1.29,4,2.63,4.1S1010.27,116.48,1010.27,116.48Z" transform="translate(-413.01 0.41)"/><path id="_Контур_3" data-name=" Контур 3" class="cls-31" d="M1012.27,131s-.35,5.95-.24,6.38,2.32.85,3,1.37-3.24,6.54-5.19,7.44-8-1.4-8.44-4.41c-.39-2.77,1.74-4.93,2.56-5.69a11.64,11.64,0,0,1,1.67,0l.18-2.87C1008.41,132.29,1012.27,131,1012.27,131Z" transform="translate(-413.01 0.41)"/><path id="_Контур_4" data-name=" Контур 4" class="cls-31" d="M994.81,162.68a31.32,31.32,0,0,1-5.91,6.15,30.11,30.11,0,0,0-2,2.37,9,9,0,0,1-4,2.64c-1.34.34-1.9.26-2.16,0s-.12-.63.46-.87a7.24,7.24,0,0,0,2.61-1.39s-1.25.57-2,.84a7.89,7.89,0,0,1-2.16.43c-.74,0-1.51-.85-.93-1.08s1.08-.28,2.27-.7a7.39,7.39,0,0,0,1.72-.89,14.49,14.49,0,0,1-2.44.51,3.74,3.74,0,0,1-2-.24c-.35-.15-.65-.77.13-1a12,12,0,0,0,2.94-.68c.9-.41,1.48-.84,1.27-.93s-.71.19-1.62.13-1.76-.65-1.75-1.08.19-.22,1.08-.29a19.88,19.88,0,0,1,2.86-.49,9.36,9.36,0,0,0,2.84-.33c1-.3,3.13-2.9,4.8-5.29a34.78,34.78,0,0,0,4.25-8.65c1-3.24,2.17-9.43,3-11.57s2.31-3.11,3.71-3.15c1.63,0,2.33,2.1,1.9,4C1002.88,144.29,999.25,156.85,994.81,162.68Z" transform="translate(-413.01 0.41)"/><path id="_Контур_5" data-name=" Контур 5" class="cls-32" d="M1013.09,138c1.66.26,3.57,1.15,3.82,2.07a19.45,19.45,0,0,1-.47,9.9c-1.44,3.82-3.08,10.71-3.9,12.36a19.4,19.4,0,0,1-12.43-2.43s-.35-6.64-.37-8.83c-5.41-4.68-.78-10.46,3.76-15a11.22,11.22,0,0,1,1.64,0s-4,4.8-1.24,7.57C1010,141.75,1011.15,139,1013.09,138Z" transform="translate(-413.01 0.41)"/><path id="_Контур_6" data-name=" Контур 6" class="cls-31" d="M1001.18,123.64h0c.6-3.82,3.36-6.69,7.29-6.49a7.57,7.57,0,0,1,7.13,8v0a7.56,7.56,0,0,1-3.33,5.79,7.59,7.59,0,0,1-.61,1.67c-1.39,1.63-5.09,2.65-6.31,2.66s-2-1-3-2.6C1000.33,129.32,1000.85,125.53,1001.18,123.64Z" transform="translate(-413.01 0.41)"/><path class="cls-30" d="M1009.68,117.26c2.76.53,5,1.31,5.78,4,.51,1.86,1.18,5.41.55,6.92l-.4,1.08-3.34,1.72s-1.56-1.3-1.08-5.1a2.77,2.77,0,0,0-.47-1.44,4,4,0,0,1-.45-1.15,4.34,4.34,0,0,0-2.16-2.34,7.49,7.49,0,0,0-6.64.3A7.24,7.24,0,0,1,1009.68,117.26Z" transform="translate(-413.01 0.41)"/><path class="cls-30" d="M994.5,208.53c-1.4,1.09-3.57.35-3.68.46a60.45,60.45,0,0,1-5.11,3.9c-.87.68-2.23,1.6-2,2.92.44,2.34,4.21,1.62,5.63.91s2.58-1.92,3.93-2.75c1-.59,1.9-.91,2-2.16C995.43,211.12,994.75,208.5,994.5,208.53Z" transform="translate(-413.01 0.41)"/><path class="cls-33" d="M995.32,211.37c-.19,1.15-1.08,1.48-2.07,2.06-1.37.86-2.57,2.08-4,2.8s-4.58,1.32-5.5-.36c.5,2.27,4.2,1.56,5.61.85s2.58-1.92,3.93-2.75c1-.59,1.9-.91,2-2.16A2.14,2.14,0,0,0,995.32,211.37Z" transform="translate(-413.01 0.41)"/><path class="cls-30" d="M987.7,204.71c-1.28,1.08-3.24.45-3.31.55a53.75,53.75,0,0,1-4.67,3.56c-.8.62-2,1.47-1.82,2.67.4,2.16,3.85,1.49,5.16.83s2.36-1.75,3.59-2.51c.88-.55,1.74-.83,1.88-1.95A7.35,7.35,0,0,0,987.7,204.71Z" transform="translate(-413.01 0.41)"/><path class="cls-33" d="M988.52,207.43c-.17,1.08-1,1.35-1.9,1.89a40.28,40.28,0,0,1-3.66,2.57c-1.36.69-4.19,1.21-5-.33.45,2.08,3.83,1.43,5.13.77s2.36-1.75,3.59-2.51c.88-.55,1.74-.83,1.88-1.94A2.26,2.26,0,0,0,988.52,207.43Z" transform="translate(-413.01 0.41)"/><path class="cls-31" d="M1007,163.74a20.53,20.53,0,0,1-11.12-1.61c.07,1.19.13,2.24.13,2.24-4.53,3.24-13.61,8.58-14.2,12.3.59,11.74,2.38,28.51,2.88,28.75,1.42.68,2.42.57,3.09-.11,0,0,2.85-9.94,2-24.53,0,0,15.83-7,16.87-10.81a12.06,12.06,0,0,0,.43-4.78A13.93,13.93,0,0,0,1007,163.74Z" transform="translate(-413.01 0.41)"/><path class="cls-31" d="M1012.28,162.22a16.94,16.94,0,0,1-9.58,1.28c0,1.57.23,4.52.23,4.52-4.55,3.18-13.6,8.58-14.18,12.3.58,11.75,1.68,28.76,2.16,29a3.85,3.85,0,0,0,3.75-.44s2.86-9.83,2-24.42c0-.27,13.58-7,15.3-8.72s2-4.4,2-6.9A17,17,0,0,0,1012.28,162.22Z" transform="translate(-413.01 0.41)"/><path class="cls-34" d="M1015.61,164.71s5,8.9-3.34,13.47c-8.83,4.82-14.21,5.95-14.21,5.95l-1.33.31a34,34,0,0,1,0,9.24s-6.3,2.17-14.33-4.87l-2.66-8.57-.31-2.27a4.77,4.77,0,0,1,1.34-4.33c1.92-1.75,8-6.22,11.82-8.77s6.87-5,6.87-5l.66-.62s4.51,3.59,12.73,2.39A13.11,13.11,0,0,1,1015.61,164.71Z" transform="translate(-413.01 0.41)"/><path id="_Контур_7" data-name=" Контур 7" class="cls-31" d="M1010.63,177.9a23.45,23.45,0,0,1,2.43-1.91,10.33,10.33,0,0,0,2.45-1.75c.77-.77,1.9-4,2.5-7.15a31.18,31.18,0,0,0-.18-10.6,74.4,74.4,0,0,0-4.2-12.22c-1.08-2.35-.49-3.79.53-4.84,1.2-1.22,2.44-1.19,3.87,2.1a67.38,67.38,0,0,1,4.41,14.38,32.1,32.1,0,0,1-.15,10.8,39.51,39.51,0,0,1-2.88,9.08c-.37.86-.43,1.57-.94,3.25a11,11,0,0,1-2.59,4.55c-1.08,1-1.65,1.21-1.94,1.08s-.35-.56.09-1.08a9.21,9.21,0,0,0,1.83-2.66s-.92,1.18-1.53,1.84a8.47,8.47,0,0,1-1.84,1.53c-.66.4-1.7-.07-1.27-.6s.92-.84,1.8-1.83a8.7,8.7,0,0,0,1.23-1.72,16,16,0,0,1-2,1.72,3.8,3.8,0,0,1-2,.81c-.37,0-.89-.43-.26-1a13.41,13.41,0,0,0,2.42-2.16c.67-.85,1-1.56.8-1.53s-.57.54-1.43.94-1.86.26-2-.22S1009.85,178.42,1010.63,177.9Z" transform="translate(-413.01 0.41)"/><path class="cls-35" d="M1020.21,146s-3,2.7-6.42,2.16l-1.36-5.67s-.9-3,1.65-4.11S1019.11,140.19,1020.21,146Z" transform="translate(-413.01 0.41)"/><path class="cls-35" d="M1003.5,136.07s-3.3-1-6.79,6.29l1.31.79A56,56,0,0,1,1003.5,136.07Z" transform="translate(-413.01 0.41)"/><g id="_Группа_" data-name=" Группа "><g id="_Группа_2" data-name=" Группа 2"><path id="_Контур_8" data-name=" Контур 8" class="cls-32" d="M980.76,167.56l11.74-6.78a.67.67,0,0,1,.67,0l20.53,11.89-12.07,7Z" transform="translate(-413.01 0.41)"/><path class="cls-36" d="M1002,177l.89.52c.08,0,.07.12,0,.17l-.85.49a.34.34,0,0,1-.28,0l-.9-.52c-.07,0-.06-.12,0-.17l.87-.49A.32.32,0,0,1,1002,177Z" transform="translate(-413.01 0.41)"/><path class="cls-36" d="M1000.72,176.23l.9.52c.06,0,.06.1,0,.16l-.85.49a.32.32,0,0,1-.3,0l-.89-.51c-.08,0-.07-.12,0-.18l.85-.48A.3.3,0,0,1,1000.72,176.23Z" transform="translate(-413.01 0.41)"/><path class="cls-36" d="M999.46,175.52l.9.52c.07,0,.06.12,0,.16l-.86.5a.3.3,0,0,1-.29,0l-.9-.52c-.07,0-.06-.12,0-.16l.86-.5A.37.37,0,0,1,999.46,175.52Z" transform="translate(-413.01 0.41)"/><path class="cls-36" d="M998.18,174.76l.9.52c.06,0,0,.11,0,.16l-.86.49a.3.3,0,0,1-.29,0l-.89-.51c-.08,0-.07-.12,0-.17l.85-.49A.3.3,0,0,1,998.18,174.76Z" transform="translate(-413.01 0.41)"/><path class="cls-36" d="M996.91,174l.89.52c.08,0,.07.12,0,.16l-.85.5a.37.37,0,0,1-.29,0l-.9-.52c-.06,0-.06-.12,0-.16l.87-.5A.34.34,0,0,1,996.91,174Z" transform="translate(-413.01 0.41)"/><path class="cls-36" d="M995.63,173.29l.9.52c.07,0,.06.11,0,.16l-.87.49a.28.28,0,0,1-.28,0l-.89-.51c-.08,0-.07-.11,0-.17l.85-.49A.3.3,0,0,1,995.63,173.29Z" transform="translate(-413.01 0.41)"/><path class="cls-36" d="M994.37,172.55l.89.52c.08,0,.07.12,0,.16l-.85.5a.3.3,0,0,1-.29,0l-.9-.52c-.07,0-.06-.11,0-.16l.86-.5A.37.37,0,0,1,994.37,172.55Z" transform="translate(-413.01 0.41)"/><path class="cls-36" d="M993.09,171.82l.9.52c.07,0,.06.11,0,.17l-.86.48a.28.28,0,0,1-.28,0l-1-.49c-.07,0-.06-.12,0-.18l.86-.49A.3.3,0,0,1,993.09,171.82Z" transform="translate(-413.01 0.41)"/><path class="cls-36" d="M991.83,171.09l.89.51c.08,0,.07.12,0,.17l-.83.51a.37.37,0,0,1-.29,0l-.9-.52c-.07,0-.06-.12,0-.17l.86-.49A.32.32,0,0,1,991.83,171.09Z" transform="translate(-413.01 0.41)"/><path class="cls-36" d="M990.55,170.36l.9.52c.07,0,.06.1,0,.16l-.86.5a.34.34,0,0,1-.28,0l-.89-.52c-.08,0-.07-.12,0-.17l.85-.49A.28.28,0,0,1,990.55,170.36Z" transform="translate(-413.01 0.41)"/><path class="cls-36" d="M989.29,169.62l.89.52c.07,0,.07.11,0,.16l-.85.5a.37.37,0,0,1-.29,0l-.9-.52c-.07,0-.06-.12,0-.16l.86-.5A.3.3,0,0,1,989.29,169.62Z" transform="translate(-413.01 0.41)"/><path class="cls-36" d="M988,168.89l.9.52c.07,0,.06.11,0,.16l-.86.5a.34.34,0,0,1-.28,0l-.9-.52c-.07,0-.06-.12,0-.17l.86-.49A.28.28,0,0,1,988,168.89Z" transform="translate(-413.01 0.41)"/><path class="cls-36" d="M986.75,168.15l.89.52c.07,0,.06.12,0,.16l-.86.5a.28.28,0,0,1-.28,0l-.9-.52c-.07,0-.06-.12,0-.16l.85-.5A.39.39,0,0,1,986.75,168.15Z" transform="translate(-413.01 0.41)"/><path class="cls-36" d="M984.86,167.06l1.51.88c.07,0,.06.11,0,.16l-.86.5a.37.37,0,0,1-.29,0l-1.5-.87c-.08,0-.06-.12,0-.17l.85-.49A.36.36,0,0,1,984.86,167.06Z" transform="translate(-413.01 0.41)"/><path class="cls-36" d="M1001.34,175.16l.9.52c.07,0,.06.11,0,.16l-.86.49a.3.3,0,0,1-.29,0l-.9-.51c-.07,0-.06-.12,0-.17l.86-.49A.3.3,0,0,1,1001.34,175.16Z" transform="translate(-413.01 0.41)"/><path class="cls-36" d="M1000.06,174.44l.9.52c.08,0,.07.12,0,.16l-.85.5a.32.32,0,0,1-.3,0l-.89-.52c-.07,0-.07-.12,0-.16l.86-.5A.34.34,0,0,1,1000.06,174.44Z" transform="translate(-413.01 0.41)"/><path class="cls-36" d="M998.79,173.69l.9.52c.07,0,.06.11,0,.16l-.86.49a.28.28,0,0,1-.28,0l-.9-.51c-.07,0-.06-.12,0-.17l.86-.49A.28.28,0,0,1,998.79,173.69Z" transform="translate(-413.01 0.41)"/><path class="cls-36" d="M997.51,173l.91.52c.07,0,.05.12,0,.16l-.86.5a.3.3,0,0,1-.29,0l-.89-.52c-.08,0-.07-.12,0-.16l.85-.5A.34.34,0,0,1,997.51,173Z" transform="translate(-413.01 0.41)"/><path class="cls-36" d="M996.22,172.28l.89.52c.07,0,.07.11,0,.16l-.85.5a.37.37,0,0,1-.29,0l-.9-.52c-.08,0-.07-.12,0-.17l.85-.49A.32.32,0,0,1,996.22,172.28Z" transform="translate(-413.01 0.41)"/><path class="cls-36" d="M995,171.49l.9.52c.08,0,.07.11,0,.16l-.85.5a.39.39,0,0,1-.3,0l-.89-.52c-.07,0-.07-.12,0-.17l.85-.49A.3.3,0,0,1,995,171.49Z" transform="translate(-413.01 0.41)"/><path class="cls-36" d="M993.71,170.76l.89.52c.08,0,.07.1,0,.16l-.85.5a.34.34,0,0,1-.28,0l-.9-.52c-.07,0-.06-.12,0-.17l.87-.49A.26.26,0,0,1,993.71,170.76Z" transform="translate(-413.01 0.41)"/><path class="cls-36" d="M992.43,170l.9.52c.08,0,.06.11,0,.16l-.87.5a.34.34,0,0,1-.28,0l-.89-.52c-.08,0-.07-.12,0-.16l.85-.5A.3.3,0,0,1,992.43,170Z" transform="translate(-413.01 0.41)"/><path class="cls-36" d="M991.17,169.29l.89.52c.07,0,.07.1,0,.16l-.85.5a.37.37,0,0,1-.29,0L990,170c-.07,0-.06-.12,0-.17l.86-.49A.3.3,0,0,1,991.17,169.29Z" transform="translate(-413.01 0.41)"/><path class="cls-36" d="M989.89,168.55l.92.49c.08,0,.07.11,0,.16l-.85.5a.37.37,0,0,1-.29,0l-.9-.52c-.07,0-.07-.12,0-.16l.85-.5A.32.32,0,0,1,989.89,168.55Z" transform="translate(-413.01 0.41)"/><path class="cls-36" d="M988.65,167.82l.9.52c.07,0,.06.1,0,.16l-.9.54a.34.34,0,0,1-.28,0l-.9-.52c-.07,0-.06-.12,0-.16l.87-.5A.29.29,0,0,1,988.65,167.82Z" transform="translate(-413.01 0.41)"/><path class="cls-36" d="M987.34,167.08l.9.52c.07,0,.06.11,0,.16l-.86.5a.34.34,0,0,1-.28,0l-.89-.52c-.08,0-.07-.12,0-.16l.85-.5A.28.28,0,0,1,987.34,167.08Z" transform="translate(-413.01 0.41)"/><path class="cls-36" d="M1002.6,175.89l1.52.88c.07,0,.06.11,0,.16l-.86.5a.34.34,0,0,1-.28,0l-1.51-.88c-.08,0-.07-.12,0-.16l.85-.5A.34.34,0,0,1,1002.6,175.89Z" transform="translate(-413.01 0.41)"/><path class="cls-36" d="M984.92,167l.9.52a.32.32,0,0,0,.27,0L987,167a.1.1,0,0,0,.06-.11.06.06,0,0,0-.06,0h-.07a.09.09,0,0,1,0-.12s0,0,0,0l1-.55a.08.08,0,0,0,0-.12s0,0,0,0l-.57-.32a.26.26,0,0,0-.27,0l-.9.52-.18.09-.13.09-.14.08-.77.44C984.84,166.88,984.84,167,984.92,167Z" transform="translate(-413.01 0.41)"/><path class="cls-36" d="M1006.91,174.11l.9.52c.07,0,.06.12,0,.16l-.86.5a.34.34,0,0,1-.28,0l-.9-.52c-.07,0-.06-.12,0-.16l.85-.5A.37.37,0,0,1,1006.91,174.11Z" transform="translate(-413.01 0.41)"/><path class="cls-36" d="M1005.64,173.36l.9.52c.07,0,.06.12,0,.17l-.86.49a.28.28,0,0,1-.28,0l-.89-.51c-.08,0-.07-.12,0-.17l.85-.49A.34.34,0,0,1,1005.64,173.36Z" transform="translate(-413.01 0.41)"/><path class="cls-36" d="M1004.38,172.65l.89.52c.08,0,.07.11,0,.16l-.85.5a.37.37,0,0,1-.29,0l-.9-.52c-.06,0-.05-.12,0-.16l.87-.5A.28.28,0,0,1,1004.38,172.65Z" transform="translate(-413.01 0.41)"/><path class="cls-36" d="M993.59,166.41l.9.52c.07,0,.06.12,0,.17l-.86.49a.3.3,0,0,1-.29,0l-.9-.52c-.07,0-.06-.11,0-.16l.86-.5A.37.37,0,0,1,993.59,166.41Z" transform="translate(-413.01 0.41)"/><path class="cls-36" d="M992.32,165.69l.9.52c.07,0,.07.1,0,.16l-.86.5a.34.34,0,0,1-.28,0l-.9-.52c-.08,0-.07-.12,0-.17l.85-.49A.3.3,0,0,1,992.32,165.69Z" transform="translate(-413.01 0.41)"/><path class="cls-36" d="M991.05,165l.9.52c.07,0,.06.12,0,.16l-.86.5a.28.28,0,0,1-.28,0l-.9-.52c-.07,0-.06-.12,0-.16l.86-.5A.34.34,0,0,1,991.05,165Z" transform="translate(-413.01 0.41)"/><path class="cls-36" d="M989.78,164.22l.9.52c.08,0,.07.12,0,.17l-.85.49a.34.34,0,0,1-.28,0l-.9-.52c-.08,0-.07-.11,0-.17l.86-.49A.32.32,0,0,1,989.78,164.22Z" transform="translate(-413.01 0.41)"/><path class="cls-36" d="M1002.79,171.73l1.22.7c.07,0,.06.12,0,.16l-.86.5a.3.3,0,0,1-.29,0l-1.24-.69c-.08,0-.06-.12,0-.17l.85-.49A.33.33,0,0,1,1002.79,171.73Z" transform="translate(-413.01 0.41)"/><path class="cls-36" d="M994.85,167.15l1.23.7c.07,0,.06.12,0,.17l-.86.49a.34.34,0,0,1-.28,0l-1.23-.71c-.07,0-.07-.12,0-.17l.86-.49A.31.31,0,0,1,994.85,167.15Z" transform="translate(-413.01 0.41)"/><path class="cls-36" d="M996.44,168.07l6,3.44c.07,0,.06.12,0,.17l-.87.49a.28.28,0,0,1-.28,0l-6-3.44c-.08,0-.07-.11,0-.17l.85-.49A.3.3,0,0,1,996.44,168.07Z" transform="translate(-413.01 0.41)"/><path class="cls-36" d="M1002.23,174.25l.89.52c.08,0,.07.11,0,.16l-.85.5a.37.37,0,0,1-.29,0l-.9-.52c-.08,0-.07-.12,0-.16l.85-.5A.32.32,0,0,1,1002.23,174.25Z" transform="translate(-413.01 0.41)"/><path class="cls-36" d="M1001,173.51l.9.52c.07,0,.06.12,0,.16l-.86.5a.34.34,0,0,1-.28,0l-.9-.52c-.07,0-.06-.12,0-.16l.86-.5A.34.34,0,0,1,1001,173.51Z" transform="translate(-413.01 0.41)"/><path class="cls-36" d="M999.69,172.78l.89.52c.08,0,.07.12,0,.16l-.85.5a.37.37,0,0,1-.29,0l-.9-.52c-.08,0-.07-.11,0-.16l.85-.5A.39.39,0,0,1,999.69,172.78Z" transform="translate(-413.01 0.41)"/><path class="cls-36" d="M998.38,172l.89.52c.08,0,.07.12,0,.18l-.86.48a.28.28,0,0,1-.28,0l-.9-.51c-.07,0-.06-.12,0-.17l.86-.5A.37.37,0,0,1,998.38,172Z" transform="translate(-413.01 0.41)"/><path class="cls-36" d="M997.15,171.32l.89.52c.08,0,.07.11,0,.16l-.85.5a.37.37,0,0,1-.29,0L996,172c-.07,0-.07-.12,0-.17l.86-.49A.3.3,0,0,1,997.15,171.32Z" transform="translate(-413.01 0.41)"/><path class="cls-36" d="M995.88,170.58l.9.52c.06,0,.06.12,0,.17l-.87.49a.28.28,0,0,1-.28,0l-.9-.52c-.07,0-.06-.12,0-.16l.86-.5A.37.37,0,0,1,995.88,170.58Z" transform="translate(-413.01 0.41)"/><path class="cls-36" d="M994.6,169.85l.9.52c.08,0,.07.12,0,.16l-.85.5a.34.34,0,0,1-.28,0l-.9-.52c-.08,0-.06-.12,0-.16l.86-.5A.32.32,0,0,1,994.6,169.85Z" transform="translate(-413.01 0.41)"/><path class="cls-36" d="M993.34,169.11l.9.52c.07,0,.06.12,0,.17l-.86.49a.3.3,0,0,1-.29,0l-.9-.52c-.07,0-.06-.1,0-.16l.86-.5A.37.37,0,0,1,993.34,169.11Z" transform="translate(-413.01 0.41)"/><path class="cls-36" d="M992.06,168.38l.9.52c.08,0,.07.12,0,.17l-.85.49a.28.28,0,0,1-.28,0l-.9-.51c-.08,0-.06-.12,0-.17l.85-.49A.31.31,0,0,1,992.06,168.38Z" transform="translate(-413.01 0.41)"/><path class="cls-36" d="M990.81,167.65l.9.52c.07,0,.06.11,0,.17l-.86.49a.3.3,0,0,1-.29,0l-.89-.52c-.07,0-.07-.11,0-.17l.85-.49A.37.37,0,0,1,990.81,167.65Z" transform="translate(-413.01 0.41)"/><path class="cls-36" d="M989.52,166.88l.9.52c.08,0,.07.11,0,.16l-.86.49a.28.28,0,0,1-.28,0l-.9-.51c-.08,0-.07-.12,0-.17l.85-.49A.26.26,0,0,1,989.52,166.88Z" transform="translate(-413.01 0.41)"/><path class="cls-36" d="M988.26,166.18l.9.52c.07,0,.06.12,0,.17l-.86.49a.3.3,0,0,1-.29,0l-.9-.52c-.06,0-.05-.11,0-.16l.87-.5A.34.34,0,0,1,988.26,166.18Z" transform="translate(-413.01 0.41)"/><path class="cls-36" d="M1003.49,175l1.86,1.08c.07,0,.06.11,0,.17l-.85.49a.32.32,0,0,1-.3,0l-1.84-1.08c-.08,0-.07-.12,0-.17l.86-.49A.32.32,0,0,1,1003.49,175Z" transform="translate(-413.01 0.41)"/><path class="cls-36" d="M1004.08,173.9l.9.52c.08,0,.07.11,0,.16l-.85.5a.37.37,0,0,1-.29,0l-.9-.52c-.07,0-.07-.12,0-.16l.85-.5A.3.3,0,0,1,1004.08,173.9Z" transform="translate(-413.01 0.41)"/><path class="cls-36" d="M1002.82,173.17l.9.52c.06,0,0,.12,0,.16l-.87.5a.34.34,0,0,1-.28,0l-.9-.52c-.07,0-.06-.12,0-.17l.86-.49A.3.3,0,0,1,1002.82,173.17Z" transform="translate(-413.01 0.41)"/><path class="cls-36" d="M1001.54,172.43l.9.52c.08,0,.07.12,0,.16l-.85.5a.28.28,0,0,1-.28,0l-.9-.52c-.08,0-.07-.12,0-.16l.86-.5A.32.32,0,0,1,1001.54,172.43Z" transform="translate(-413.01 0.41)"/><path class="cls-36" d="M1000.28,171.7l.9.52c.07,0,.06.12,0,.17l-.86.49a.37.37,0,0,1-.29,0l-.9-.52c-.07,0-.06-.11,0-.17l.86-.49A.3.3,0,0,1,1000.28,171.7Z" transform="translate(-413.01 0.41)"/><path class="cls-36" d="M999,171l.9.51c.08,0,.07.12,0,.17l-.85.49a.34.34,0,0,1-.28,0l-.9-.52c-.08,0-.07-.12,0-.17l.85-.49A.31.31,0,0,1,999,171Z" transform="translate(-413.01 0.41)"/><path class="cls-36" d="M997.74,170.24l.9.52c.07,0,.06.11,0,.16l-.86.5a.37.37,0,0,1-.29,0l-.9-.52c-.06,0-.06-.12,0-.16l.86-.5A.3.3,0,0,1,997.74,170.24Z" transform="translate(-413.01 0.41)"/><path class="cls-36" d="M996.46,169.5l.91.52c.07,0,.06.12,0,.16l-.86.5a.34.34,0,0,1-.28,0l-.9-.52c-.08,0-.07-.12,0-.16l.85-.5A.34.34,0,0,1,996.46,169.5Z" transform="translate(-413.01 0.41)"/><path class="cls-36" d="M995.2,168.77l.9.52c.07,0,.06.12,0,.16l-.86.5a.34.34,0,0,1-.28,0l-.9-.52c-.07,0-.06-.11,0-.16l.87-.5A.32.32,0,0,1,995.2,168.77Z" transform="translate(-413.01 0.41)"/><path class="cls-36" d="M993.93,168l.9.52c.08,0,.07.12,0,.18l-.85.48a.3.3,0,0,1-.29,0l-.9-.52c-.08,0-.07-.11,0-.16l.85-.5A.37.37,0,0,1,993.93,168Z" transform="translate(-413.01 0.41)"/><path class="cls-36" d="M992.66,167.31l.9.52c.07,0,.06.11,0,.16l-.86.5a.34.34,0,0,1-.28,0l-.9-.52c-.07,0-.06-.12,0-.17l.86-.49A.28.28,0,0,1,992.66,167.31Z" transform="translate(-413.01 0.41)"/><path class="cls-36" d="M991.39,166.57l.9.52c.08,0,.07.12,0,.16l-.85.5a.3.3,0,0,1-.29,0l-.9-.52c-.07,0-.07-.12,0-.16l.85-.5A.37.37,0,0,1,991.39,166.57Z" transform="translate(-413.01 0.41)"/><path class="cls-36" d="M988.55,164.93l2.48,1.43c.06,0,.05.12,0,.16l-.87.5a.28.28,0,0,1-.28,0l-2.46-1.43c-.08,0-.07-.11,0-.16l.86-.5A.32.32,0,0,1,988.55,164.93Z" transform="translate(-413.01 0.41)"/><path class="cls-36" d="M1005.35,174.63l1.23.71c.07,0,0,.12,0,.16l-.86.5a.34.34,0,0,1-.28,0l-1.23-.7c-.07,0-.06-.12,0-.18l.86-.48A.31.31,0,0,1,1005.35,174.63Z" transform="translate(-413.01 0.41)"/><path class="cls-36" d="M983.58,167.81l18,10.39c.08,0,.06.12,0,.18l-.43.24a.34.34,0,0,1-.28,0l-18-10.4c-.07,0,0-.12,0-.17l.43-.24A.26.26,0,0,1,983.58,167.81Z" transform="translate(-413.01 0.41)"/><polygon id="_Контур_9" data-name=" Контур 9" class="cls-37" points="591.9 168.9 591.78 168.96 588.68 170.76 583.16 167.57 583.05 167.5 586.27 165.64 591.9 168.9"/><polygon id="_Контур_10" data-name=" Контур 10" class="cls-38" points="591.78 168.96 588.68 170.76 583.16 167.57 586.27 165.77 591.78 168.96"/><path id="_Контур_11" data-name=" Контур 11" class="cls-38" d="M1013.76,172.67v.27a1.12,1.12,0,0,1-.56,1l-11,6.32a1.09,1.09,0,0,1-1.08,0l-19.84-11.43a1.08,1.08,0,0,1-.57-1v-.27l20.92,12.07Z" transform="translate(-413.01 0.41)"/><path id="_Контур_12" data-name=" Контур 12" class="cls-38" d="M1001.68,179.63v.76a1.23,1.23,0,0,1-.56-.15l-19.79-11.43a1.08,1.08,0,0,1-.57-1v-.27Z" transform="translate(-413.01 0.41)"/><path id="_Контур_13" data-name=" Контур 13" class="cls-32" d="M1001.37,179.85a1.39,1.39,0,0,1-1.16-.09L980.5,168.34a1.32,1.32,0,0,1-.65-.94l-2.16-12.87a.74.74,0,0,1,0-.21,1.29,1.29,0,0,1,.4-.95l20.47,11.82a1,1,0,0,1,.49.69Z" transform="translate(-413.01 0.41)"/><path id="_Контур_14" data-name=" Контур 14" class="cls-38" d="M1001.68,179.64l-.12.08-.19.08L999,165.88a1,1,0,0,0-.49-.69l-20.47-11.82a1.13,1.13,0,0,1,.27-.22L998.89,165a1.09,1.09,0,0,1,.48.7Z" transform="translate(-413.01 0.41)"/></g></g></g><g id="Men_12" data-name="Men 12"><path id="_Контур_42" data-name=" Контур 42" class="cls-31" d="M1094.91,209.5a42.41,42.41,0,0,1-6.16,8.37c-.67.78-5.78-1.17-4.71-1.73s4.42-5.23,6.11-8.34a102.78,102.78,0,0,0,3.57-11.38c1.09-3.82,2-9.42,2.74-12a5.14,5.14,0,0,1,3.92-4c1.84-.42,3,.07,2.7,2.31C1102.49,186.6,1099.43,201.8,1094.91,209.5Z" transform="translate(-413.01 0.41)"/><path class="cls-39" d="M1097.82,269.05c-1.58,1.29-3.92.11-4,.23a70.14,70.14,0,0,1-5.86,4.88c-1,.78-2.53,1.82-2.26,3.32.51,2.68,4.79,1.85,6.4,1.08s2.94-2.17,4.46-3.13c1.08-.68,2.17-1,2.34-2.41C1099,272.15,1098.12,269,1097.82,269.05Z" transform="translate(-413.01 0.41)"/><path class="cls-40" d="M1098.9,272.43c-.2,1.32-1.26,1.67-2.34,2.35-1.56,1-2.93,2.36-4.54,3.17s-5.22,1.51-6.27-.4c.57,2.58,4.77,1.77,6.37,1s2.94-2.16,4.47-3.12c1.08-.68,2.16-1,2.33-2.41A2,2,0,0,0,1098.9,272.43Z" transform="translate(-413.01 0.41)"/><path class="cls-39" d="M1081.75,259.83c-1.59,1.29-4.33-.11-4.49,0a63.4,63.4,0,0,1-5.23,4.73c-1,.78-2.54,1.81-2.26,3.32.5,2.67,4.79,1.85,6.4,1.08s2.94-2.16,4.46-3.13c1.09-.67,2.17-1,2.34-2.4C1083.08,262.49,1082,259.75,1081.75,259.83Z" transform="translate(-413.01 0.41)"/><path class="cls-40" d="M1082.93,263c-.22,1.32-1.28,1.67-2.36,2.35-1.56,1-2.92,2.36-4.54,3.17s-5.21,1.52-6.26-.4c.56,2.59,4.78,1.77,6.38,1s2.93-2.16,4.46-3.12c1.08-.68,2.16-1,2.34-2.41A5.06,5.06,0,0,0,1082.93,263Z" transform="translate(-413.01 0.41)"/><path id="_Контур_43" data-name=" Контур 43" class="cls-41" d="M1119.07,218.17c1.76,11-3.12,15.13-9.47,17.43-4.55,1.68-11.09,4.26-11.09,4.26s.1,2.41.14,7.83c.06,4.76-.58,22.18-.58,22.18a5.32,5.32,0,0,1-4.85-.06s-2.57-13.34-3.11-19.35c-.73-8.16-2-13.5-1.57-15.25.36-1.54,9.28-5.93,12.11-8.28L1082,233.19a33.31,33.31,0,0,1,.55,6.14c-.18,6.49-.53,20.48-.53,20.48s-2.57,1.85-4.75,0c0,0-4.7-27.72-4.13-31.34s17-10.61,19.9-13.06a4.62,4.62,0,0,1,3.65-1Z" transform="translate(-413.01 0.41)"/><g id="_Группа_5" data-name=" Группа 5"><g id="_Группа_6" data-name=" Группа 6"><path id="_Контур_44" data-name=" Контур 44" class="cls-32" d="M1074.29,222.74l12.55-7.22a.71.71,0,0,1,.72,0l22,12.71-12.91,7.46Z" transform="translate(-413.01 0.41)"/><path class="cls-36" d="M1097.25,233l1,.55c.08,0,.06.13,0,.17l-.92.53a.32.32,0,0,1-.3,0l-1-.55c-.09,0-.08-.12,0-.17l.91-.53A.32.32,0,0,1,1097.25,233Z" transform="translate(-413.01 0.41)"/><path class="cls-36" d="M1095.9,232.22l.95.55c.08,0,.07.12,0,.17l-.91.53a.32.32,0,0,1-.3,0l-1-.55c-.08,0-.07-.12,0-.17l.91-.53A.34.34,0,0,1,1095.9,232.22Z" transform="translate(-413.01 0.41)"/><path class="cls-36" d="M1094.58,231.43l1,.55c.08,0,.07.12,0,.17l-.92.53a.32.32,0,0,1-.3,0l-1-.55c-.09,0-.08-.13,0-.17l.91-.53A.27.27,0,0,1,1094.58,231.43Z" transform="translate(-413.01 0.41)"/><path class="cls-36" d="M1093.18,230.65l1,.55c.07,0,.06.13,0,.17l-.92.53a.29.29,0,0,1-.31,0l-1-.55c-.07,0-.07-.12,0-.17l.91-.53A.32.32,0,0,1,1093.18,230.65Z" transform="translate(-413.01 0.41)"/><path class="cls-36" d="M1091.83,229.87l1,.55c.08,0,.07.12,0,.18l-.91.53a.42.42,0,0,1-.31,0l-1-.56c-.07,0-.06-.11,0-.17l.92-.53A.32.32,0,0,1,1091.83,229.87Z" transform="translate(-413.01 0.41)"/><path class="cls-36" d="M1090.48,229.08l1,.57c.09,0,.08.11,0,.17l-.91.53a.39.39,0,0,1-.3,0l-1-.55c-.08,0-.06-.13,0-.19l.92-.52A.35.35,0,0,1,1090.48,229.08Z" transform="translate(-413.01 0.41)"/><path class="cls-36" d="M1089.17,228.3l.95.56c.08,0,.07.13,0,.17l-.95.54a.34.34,0,0,1-.31,0l-.95-.55c-.08,0-.07-.12,0-.17l.91-.53A.34.34,0,0,1,1089.17,228.3Z" transform="translate(-413.01 0.41)"/><path class="cls-36" d="M1087.77,227.53l1,.55c.08,0,.07.12,0,.17l-.92.53a.32.32,0,0,1-.3,0l-1-.55c-.09,0-.08-.12,0-.17l.91-.53A.32.32,0,0,1,1087.77,227.53Z" transform="translate(-413.01 0.41)"/><path class="cls-36" d="M1086.42,226.74l.95.56c.09,0,.07.12,0,.17l-.91.53a.32.32,0,0,1-.3,0l-1-.55c-.08,0-.07-.13,0-.18l.91-.52A.34.34,0,0,1,1086.42,226.74Z" transform="translate(-413.01 0.41)"/><path class="cls-36" d="M1085.07,226l1,.55c.07,0,.07.13,0,.17l-.91.53a.27.27,0,0,1-.3,0l-1-.55c-.07,0-.06-.12,0-.17l.92-.53A.34.34,0,0,1,1085.07,226Z" transform="translate(-413.01 0.41)"/><path class="cls-36" d="M1083.7,225.18l1,.55c.07,0,.06.12,0,.18l-.92.52a.34.34,0,0,1-.31,0l-1-.55c-.07,0-.07-.12,0-.17l.91-.53A.32.32,0,0,1,1083.7,225.18Z" transform="translate(-413.01 0.41)"/><path class="cls-36" d="M1082.35,224.39l1,.56c.07,0,.06.12,0,.18l-.92.53a.42.42,0,0,1-.31,0l-1-.55c-.07,0-.06-.13,0-.19l.91-.52A.34.34,0,0,1,1082.35,224.39Z" transform="translate(-413.01 0.41)"/><path class="cls-36" d="M1081,223.61l1,.55c.09,0,.08.13,0,.18l-.9.53a.34.34,0,0,1-.31,0l-1-.55c-.08,0-.06-.12,0-.18l.92-.53A.39.39,0,0,1,1081,223.61Z" transform="translate(-413.01 0.41)"/><path class="cls-36" d="M1079,222.46l1.61.93c.08,0,.07.12,0,.17l-.91.53a.34.34,0,0,1-.31,0l-1.6-.93c-.09,0-.07-.12,0-.17l.91-.53A.32.32,0,0,1,1079,222.46Z" transform="translate(-413.01 0.41)"/><path class="cls-36" d="M1096.56,231.08l1,.55c.08,0,.07.12,0,.18l-.91.53a.39.39,0,0,1-.3,0l-1-.55c-.07,0-.06-.13,0-.18l.92-.53A.34.34,0,0,1,1096.56,231.08Z" transform="translate(-413.01 0.41)"/><path class="cls-36" d="M1095.19,230.29l1,.55c.07,0,.06.13,0,.19l-.92.52a.34.34,0,0,1-.31,0l-1-.56c-.08,0-.07-.12,0-.18l.91-.53A.39.39,0,0,1,1095.19,230.29Z" transform="translate(-413.01 0.41)"/><path class="cls-36" d="M1093.84,229.57l1,.55c.09,0,.08.12,0,.17l-.9.53a.34.34,0,0,1-.31,0l-1-.55c-.07,0-.06-.12,0-.17l.88-.53A.34.34,0,0,1,1093.84,229.57Z" transform="translate(-413.01 0.41)"/><path class="cls-36" d="M1092.48,228.73l1,.55c.08,0,.07.13,0,.18l-.92.52a.32.32,0,0,1-.3,0l-1-.55c-.09,0-.08-.13,0-.18l.91-.52A.32.32,0,0,1,1092.48,228.73Z" transform="translate(-413.01 0.41)"/><path class="cls-36" d="M1091.14,228l.95.56c.09,0,.08.12,0,.17l-.91.53a.32.32,0,0,1-.3,0l-1-.55c-.08,0-.07-.13,0-.18l.92-.52A.32.32,0,0,1,1091.14,228Z" transform="translate(-413.01 0.41)"/><path class="cls-36" d="M1089.78,227.17l1,.55c.08,0,.07.13,0,.17l-.92.53a.32.32,0,0,1-.3,0l-1-.55c-.09,0-.08-.12,0-.17l.91-.53A.32.32,0,0,1,1089.78,227.17Z" transform="translate(-413.01 0.41)"/><path class="cls-36" d="M1088.43,226.39l1,.55c.09,0,.07.12,0,.18l-.91.53a.39.39,0,0,1-.3,0l-1-.56c-.08,0-.07-.13,0-.18l.92-.52A.32.32,0,0,1,1088.43,226.39Z" transform="translate(-413.01 0.41)"/><path class="cls-36" d="M1087.07,225.6l1,.55c.07,0,.06.13,0,.18l-.92.53a.32.32,0,0,1-.3,0l-1-.55c-.09,0-.08-.12,0-.18l.9-.53A.34.34,0,0,1,1087.07,225.6Z" transform="translate(-413.01 0.41)"/><path class="cls-36" d="M1085.71,224.82l1,.56c.08,0,.07.11,0,.17l-.91.53a.32.32,0,0,1-.3,0l-1-.55c-.07,0-.06-.13,0-.18l.92-.53A.32.32,0,0,1,1085.71,224.82Z" transform="translate(-413.01 0.41)"/><path class="cls-36" d="M1084.35,224l1,.55c.08,0,.07.13,0,.18l-.91.52a.34.34,0,0,1-.31,0l-.95-.55c-.08,0-.07-.12,0-.18l.91-.52A.32.32,0,0,1,1084.35,224Z" transform="translate(-413.01 0.41)"/><path class="cls-36" d="M1083,223.26l1,.55c.09,0,.08.12,0,.17l-.91.53a.32.32,0,0,1-.3,0l-1-.55c-.08,0-.06-.13,0-.17l.92-.53A.32.32,0,0,1,1083,223.26Z" transform="translate(-413.01 0.41)"/><path class="cls-36" d="M1081.61,222.47l1,.55c.07,0,.06.13,0,.18l-.92.52a.32.32,0,0,1-.3,0l-.95-.56c-.09,0-.08-.12,0-.17l.9-.53A.37.37,0,0,1,1081.61,222.47Z" transform="translate(-413.01 0.41)"/><path class="cls-36" d="M1097.91,231.86l1.61.93c.07,0,.06.13,0,.17l-.91.53a.32.32,0,0,1-.3,0l-1.61-.93c-.09,0-.08-.12,0-.17l.9-.53A.42.42,0,0,1,1097.91,231.86Z" transform="translate(-413.01 0.41)"/><path class="cls-36" d="M1079.06,222.4l1,.55a.24.24,0,0,0,.28,0l1-.55c.09,0,.09-.12,0-.16h-.07a.08.08,0,0,1,0-.12l0,0,1-.6a.08.08,0,0,0,0-.11.08.08,0,0,0,0,0l-.6-.41a.3.3,0,0,0-.29,0l-1,.54-.19.12-.14.09-.15.07-.82.48a.09.09,0,1,0,0,.18Z" transform="translate(-413.01 0.41)"/><path class="cls-36" d="M1102.49,230l1,.55c.08,0,.07.13,0,.18l-.92.53a.32.32,0,0,1-.3,0l-1-.55c-.08,0-.08-.13,0-.18l.91-.52A.32.32,0,0,1,1102.49,230Z" transform="translate(-413.01 0.41)"/><path class="cls-36" d="M1101.15,229.18l.95.55c.08,0,.07.13,0,.19l-.91.51a.34.34,0,0,1-.31,0l-1-.56c-.08,0-.07-.12,0-.17l.91-.53A.37.37,0,0,1,1101.15,229.18Z" transform="translate(-413.01 0.41)"/><path class="cls-36" d="M1099.8,228.4l1,.55c.08,0,.07.13,0,.18l-.91.53a.34.34,0,0,1-.31,0l-1-.56c-.08,0-.07-.11,0-.17l.91-.53A.34.34,0,0,1,1099.8,228.4Z" transform="translate(-413.01 0.41)"/><path class="cls-36" d="M1088.3,221.77l1,.55c.07,0,.07.12,0,.17l-.91.53a.32.32,0,0,1-.3,0l-1-.55c-.08,0-.07-.12,0-.18l.92-.52A.32.32,0,0,1,1088.3,221.77Z" transform="translate(-413.01 0.41)"/><path class="cls-36" d="M1087,221l1,.55c.08,0,.07.12,0,.17l-.91.53a.32.32,0,0,1-.3,0l-1-.55c-.08,0-.07-.12,0-.17l.91-.53A.34.34,0,0,1,1087,221Z" transform="translate(-413.01 0.41)"/><path class="cls-36" d="M1085.6,220.21l1,.55c.08,0,.07.12,0,.17l-.91.53a.32.32,0,0,1-.3,0l-1-.55c-.07,0-.06-.13,0-.17l.92-.53A.29.29,0,0,1,1085.6,220.21Z" transform="translate(-413.01 0.41)"/><path class="cls-36" d="M1084.24,219.43l1,.55c.08,0,.07.12,0,.17l-.91.53a.32.32,0,0,1-.3,0l-1-.55c-.07,0-.06-.13,0-.18l.92-.52A.32.32,0,0,1,1084.24,219.43Z" transform="translate(-413.01 0.41)"/><path class="cls-36" d="M1098.09,227.41l1.31.75c.07,0,.06.13,0,.18l-.91.53a.39.39,0,0,1-.3,0l-1.31-.75c-.08-.05-.06-.13,0-.18l.94-.53A.32.32,0,0,1,1098.09,227.41Z" transform="translate(-413.01 0.41)"/><path class="cls-36" d="M1089.65,222.54l1.3.76c.08,0,.07.12,0,.17l-.91.53a.32.32,0,0,1-.3,0l-1.31-.75c-.08,0-.07-.12,0-.18l.91-.53A.42.42,0,0,1,1089.65,222.54Z" transform="translate(-413.01 0.41)"/><path class="cls-36" d="M1091.34,223.53l6.35,3.66c.08,0,.07.13,0,.19l-.91.51a.34.34,0,0,1-.31,0l-6.36-3.67c-.07,0-.06-.13,0-.17l.92-.53A.34.34,0,0,1,1091.34,223.53Z" transform="translate(-413.01 0.41)"/><path class="cls-36" d="M1097.5,230.11l1,.55c.07,0,.06.12,0,.17l-.92.53a.32.32,0,0,1-.3,0l-1-.55c-.09,0-.08-.12,0-.17l.9-.53A.34.34,0,0,1,1097.5,230.11Z" transform="translate(-413.01 0.41)"/><path class="cls-36" d="M1096.15,229.33l1,.55c.07,0,.06.12,0,.18l-.91.53a.39.39,0,0,1-.3,0l-1-.56c-.07,0-.06-.13,0-.17l.92-.53A.32.32,0,0,1,1096.15,229.33Z" transform="translate(-413.01 0.41)"/><path class="cls-36" d="M1094.79,228.54l1,.56c.08,0,.07.12,0,.18l-.91.53a.42.42,0,0,1-.31,0l-1-.55c-.07,0-.06-.13,0-.19l.92-.52A.35.35,0,0,1,1094.79,228.54Z" transform="translate(-413.01 0.41)"/><path class="cls-36" d="M1093.5,227.76l1,.56c.07,0,.07.13,0,.18l-.91.52a.32.32,0,0,1-.3,0l-1-.55c-.08,0-.07-.12,0-.18l.91-.53A.42.42,0,0,1,1093.5,227.76Z" transform="translate(-413.01 0.41)"/><path class="cls-36" d="M1092.09,227l1,.55c.08,0,.07.12,0,.17l-.9.53a.36.36,0,0,1-.32,0l-1-.55c-.07,0-.06-.12,0-.17l.91-.53A.34.34,0,0,1,1092.09,227Z" transform="translate(-413.01 0.41)"/><path class="cls-36" d="M1090.73,226.21l1,.55c.08,0,.07.12,0,.17l-.92.53a.32.32,0,0,1-.3,0l-1-.55c-.08,0-.08-.13,0-.17l.91-.53A.27.27,0,0,1,1090.73,226.21Z" transform="translate(-413.01 0.41)"/><path class="cls-36" d="M1089.38,225.42l1,.56c.08,0,.07.12,0,.17l-.92.53a.32.32,0,0,1-.3,0l-.95-.55c-.09,0-.08-.13,0-.18l.91-.52A.32.32,0,0,1,1089.38,225.42Z" transform="translate(-413.01 0.41)"/><path class="cls-36" d="M1088,224.64l1,.55c.08,0,.06.13,0,.19l-.92.51a.27.27,0,0,1-.3,0l-1-.55c-.09,0-.08-.12,0-.17l.91-.53A.39.39,0,0,1,1088,224.64Z" transform="translate(-413.01 0.41)"/><path class="cls-36" d="M1086.68,223.86l1,.55c.07,0,.06.12,0,.18l-.92.53a.39.39,0,0,1-.3,0l-1-.56c-.08,0-.07-.11,0-.17l.91-.53A.34.34,0,0,1,1086.68,223.86Z" transform="translate(-413.01 0.41)"/><path class="cls-36" d="M1085.33,223.08l1,.56c.08,0,.07.11,0,.17l-.91.53a.32.32,0,0,1-.3,0l-1-.55c-.07,0-.06-.13,0-.18l.92-.53A.34.34,0,0,1,1085.33,223.08Z" transform="translate(-413.01 0.41)"/><path class="cls-36" d="M1084,222.29l1,.57c.07,0,.07.12,0,.17l-.91.53a.39.39,0,0,1-.3,0l-1-.55c-.07,0-.06-.13,0-.19l.92-.51A.32.32,0,0,1,1084,222.29Z" transform="translate(-413.01 0.41)"/><path class="cls-36" d="M1082.62,221.52l1,.55c.08,0,.07.13,0,.18l-.9.52a.36.36,0,0,1-.32,0l-.95-.55c-.07,0-.06-.12,0-.17l.91-.53A.34.34,0,0,1,1082.62,221.52Z" transform="translate(-413.01 0.41)"/><path class="cls-36" d="M1098.9,230.89l2,1.14c.09,0,.08.12,0,.18l-.91.53a.39.39,0,0,1-.3,0l-2-1.15c-.09,0-.07-.12,0-.17l.91-.53A.32.32,0,0,1,1098.9,230.89Z" transform="translate(-413.01 0.41)"/><path class="cls-36" d="M1099.49,229.74l1,.55c.07,0,.07.12,0,.18l-.91.53a.39.39,0,0,1-.3,0l-1-.56c-.07,0-.06-.12,0-.17l.92-.53A.34.34,0,0,1,1099.49,229.74Z" transform="translate(-413.01 0.41)"/><path class="cls-36" d="M1098.13,229l1,.57c.07,0,.06.11,0,.17l-.91.53a.44.44,0,0,1-.32,0l-.95-.55c-.07,0-.06-.13,0-.19l.91-.52A.37.37,0,0,1,1098.13,229Z" transform="translate(-413.01 0.41)"/><path class="cls-36" d="M1096.74,228.17l1,.56c.08,0,.07.13,0,.18l-.92.52a.32.32,0,0,1-.3,0l-1-.55c-.08,0-.07-.12,0-.18l.91-.53A.39.39,0,0,1,1096.74,228.17Z" transform="translate(-413.01 0.41)"/><path class="cls-36" d="M1095.42,227.41l1,.55c.08,0,.07.13,0,.17l-.92.53a.32.32,0,0,1-.3,0l-1-.55c-.09,0-.07-.12,0-.17l.91-.53A.32.32,0,0,1,1095.42,227.41Z" transform="translate(-413.01 0.41)"/><path class="cls-36" d="M1094.07,226.62l1,.55c.08,0,.07.12,0,.17l-.92.53a.32.32,0,0,1-.3,0l-1-.55c-.09,0-.08-.13,0-.17l.91-.53A.32.32,0,0,1,1094.07,226.62Z" transform="translate(-413.01 0.41)"/><path class="cls-36" d="M1092.72,225.83l1,.56c.08,0,.07.12,0,.17l-.92.53a.32.32,0,0,1-.3,0l-1-.55c-.08,0-.07-.13,0-.18l.92-.52A.32.32,0,0,1,1092.72,225.83Z" transform="translate(-413.01 0.41)"/><path class="cls-36" d="M1091.34,225.05l1,.55c.08,0,.07.13,0,.19l-.91.52a.39.39,0,0,1-.3,0l-1-.57c-.07,0-.06-.12,0-.17l.92-.53A.37.37,0,0,1,1091.34,225.05Z" transform="translate(-413.01 0.41)"/><path class="cls-36" d="M1090,224.27l1,.55c.08,0,.07.13,0,.18l-.91.53a.39.39,0,0,1-.3,0l-1-.55c-.08,0-.07-.12,0-.18l.91-.53A.34.34,0,0,1,1090,224.27Z" transform="translate(-413.01 0.41)"/><path class="cls-36" d="M1088.67,223.49l.95.56c.07,0,.07.11,0,.17l-.91.53a.32.32,0,0,1-.3,0l-1-.55c-.07,0-.06-.12,0-.18l.92-.53A.42.42,0,0,1,1088.67,223.49Z" transform="translate(-413.01 0.41)"/><path class="cls-36" d="M1087.31,222.72l1,.55c.07,0,.06.12,0,.17l-.91.53a.44.44,0,0,1-.32,0l-1-.55c-.07,0-.06-.13,0-.18l.91-.52A.29.29,0,0,1,1087.31,222.72Z" transform="translate(-413.01 0.41)"/><path class="cls-36" d="M1085.93,221.93l1,.55c.08,0,.07.13,0,.18l-.91.52a.34.34,0,0,1-.31,0l-1-.56c-.08,0-.07-.12,0-.17l.91-.53A.37.37,0,0,1,1085.93,221.93Z" transform="translate(-413.01 0.41)"/><path class="cls-36" d="M1082.94,220.19l2.62,1.51c.08,0,.07.13,0,.17l-.92.53a.27.27,0,0,1-.3,0l-2.65-1.48c-.07,0-.06-.13,0-.17l.91-.53A.32.32,0,0,1,1082.94,220.19Z" transform="translate(-413.01 0.41)"/><path class="cls-36" d="M1100.84,230.52l1.3.76c.08,0,.07.12,0,.17l-.9.53a.42.42,0,0,1-.31,0l-1.3-.76c-.08,0-.07-.12,0-.17l.91-.53A.39.39,0,0,1,1100.84,230.52Z" transform="translate(-413.01 0.41)"/><path class="cls-36" d="M1077.64,223.25l19.21,11.08c.07,0,.06.13,0,.18l-.46.26a.32.32,0,0,1-.3,0l-19.24-11.08c-.07,0-.06-.12,0-.17l.46-.26A.3.3,0,0,1,1077.64,223.25Z" transform="translate(-413.01 0.41)"/><polygon id="_Контур_45" data-name=" Контур 45" class="cls-37" points="687.11 224.14 686.98 224.22 683.66 226.13 677.75 222.73 677.64 222.66 681.08 220.67 687.11 224.14"/><polygon id="_Контур_46" data-name=" Контур 46" class="cls-38" points="686.98 224.22 683.66 226.13 677.75 222.73 681.08 220.81 686.98 224.22"/><path id="_Контур_47" data-name=" Контур 47" class="cls-38" d="M1109.57,228.21v.28a1.22,1.22,0,0,1-.59,1.08l-11.71,6.76a1.22,1.22,0,0,1-1.21,0l-21.17-12.22a1.22,1.22,0,0,1-.6-1.08v-.3l22.37,13Z" transform="translate(-413.01 0.41)"/><path id="_Контур_48" data-name=" Контур 48" class="cls-32" d="M1096.33,235.84a1.42,1.42,0,0,1-1.24-.1l-21-12.16a1.42,1.42,0,0,1-.7-1L1071,208.82v-.24a1.46,1.46,0,0,1,.43-1l21.9,12.65a1.06,1.06,0,0,1,.51.74Z" transform="translate(-413.01 0.41)"/><path id="_Контур_49" data-name=" Контур 49" class="cls-38" d="M1096.66,235.67l-.14.07-.19.1-2.5-14.92a1,1,0,0,0-.52-.74l-21.9-12.65a1.29,1.29,0,0,1,.3-.22l22,12.67a1.09,1.09,0,0,1,.51.74Z" transform="translate(-413.01 0.41)"/></g></g><path id="_Контур_50" data-name=" Контур 50" class="cls-31" d="M1112.58,176.78s-.27,5.24-.16,5.7,2.4,2,3.07,2.55-3.62,4.77-5.7,5.73-8.65-1.56-8.8-4.81,1.08-6,2.16-6.1S1112.58,176.78,1112.58,176.78Z" transform="translate(-413.01 0.41)"/><path id="_Контур_51" data-name=" Контур 51" class="cls-32" d="M1113.16,183.38s-3.79,5.67-9.1,6.2c-1.67-1.65-1.82-7.57.49-9.39,0,0-2.16-1.72-3.58-1.38a7.49,7.49,0,0,0-3.25,4.18,34,34,0,0,0-1.87,12.12c.09,5.56,0,19.6,0,19.6a11.91,11.91,0,0,0,5.59,8,17.28,17.28,0,0,0,12.59,1.74c2.69-.63,3.68-2.16,4.61-4.08-.24-3.89-1.78-11.89-1.14-16.8s1.69-8.55,2-12.51-.53-3.88-2.51-5.29A32.46,32.46,0,0,0,1113.16,183.38Z" transform="translate(-413.01 0.41)"/><path id="_Контур_52" data-name=" Контур 52" class="cls-31" d="M1107.06,228.49a29.55,29.55,0,0,1,3-1.71,6.09,6.09,0,0,0,2.54-1.53c.94-.92,2.46-4.33,3.54-7.73a34.71,34.71,0,0,0,1.29-11.73c-.47-4.71-2.16-11.32-2.6-14s.45-3.81,1.71-4.8c1.48-1.18,3.54-.66,4.63,3.14a73.93,73.93,0,0,1,2.44,16.13,36.9,36.9,0,0,1-1.85,11.89,43.22,43.22,0,0,1-4.54,9.35c-.52.89-.69,1.67-1.49,3.46a12.17,12.17,0,0,1-3.47,4.62c-1.34,1-2,1.08-2.28.9s-.31-.65.25-1.15a10.24,10.24,0,0,0,2.38-2.66s-1.17,1.16-1.93,1.8a10.34,10.34,0,0,1-2.22,1.42c-.78.34-1.86-.31-1.31-.84s1.08-.78,2.23-1.74a9.84,9.84,0,0,0,1.57-1.72,19,19,0,0,1-2.47,1.6,4.16,4.16,0,0,1-2.25.6c-.41,0-.91-.58-.14-1.14a15.21,15.21,0,0,0,3-2c.85-.85,1.33-1.56,1.08-1.58s-.7.52-1.7.83-2.06,0-2.16-.52S1106.13,229,1107.06,228.49Z" transform="translate(-413.01 0.41)"/><path id="_Контур_53" data-name=" Контур 53" class="cls-31" d="M1100.73,169h0c.63-4.06,3.54-7.13,7.74-6.9a8.06,8.06,0,0,1,4.11,14.71,8.84,8.84,0,0,1-.65,1.78c-1.48,1.73-6,2.8-7.26,2.62a3.87,3.87,0,0,1-3.34-2.74C1100,175.25,1100.38,171,1100.73,169Z" transform="translate(-413.01 0.41)"/><path class="cls-36" d="M1112.58,176.78h0l-.39-3.55s2.89-7.5-4-6c-4.52.95-5.65,1.36-7-1.68s3.47-5.75,9.24-5a8,8,0,0,1,7.12,8.07C1117.42,170.81,1116.82,175.33,1112.58,176.78Z" transform="translate(-413.01 0.41)"/><path class="cls-35" d="M1124.29,197.14s-3.74,3.72-8.16,2.65c-.63-.43-2.16-9.11-2.16-9.11s0-4.81,3.69-4.69S1124.29,197.14,1124.29,197.14Z" transform="translate(-413.01 0.41)"/><path class="cls-35" d="M1096.08,189.93a4.13,4.13,0,0,1-2.76-1.24c.16-1.94,2.64-9.33,7.65-9.88a9.42,9.42,0,0,0-3.13,3.78A49.94,49.94,0,0,0,1096.08,189.93Z" transform="translate(-413.01 0.41)"/></g><g id="Girl_8" data-name="Girl 8"><ellipse class="cls-42" cx="655.27" cy="592.68" rx="24.53" ry="14.16"/><path id="_Контур_27" data-name=" Контур 27" class="cls-36" d="M1067.2,459.86c1-1.57,8.49-2.61,11,3.75.93,2.41.79,8.59,1.57,12.46s2.63,6.07,3.25,9.22-.41,8.41-8,9.35-13.4-1.73-15.2-4.15-1.82-7.57,0-10.31,3.24-5,3.24-8.64Z" transform="translate(-413.01 0.41)"/><path class="cls-31" d="M1058.2,486.5s-1.78,12.61,1.59,21.49,2.43-2.31,2.43-2.31l-.81-2.66s-.67-10.26-.39-12.78.22-4.68.39-4.89-.66-.6-1-.66S1058.2,486.5,1058.2,486.5Z" transform="translate(-413.01 0.41)"/><path id="_Контур_28" data-name=" Контур 28" class="cls-36" d="M1072.16,458.77s-5.66-1.63-9.08,1.43a8.39,8.39,0,0,0-2.42,8.38c.45,1.78,1.37,4.22,2.78,4.32S1072.16,458.77,1072.16,458.77Z" transform="translate(-413.01 0.41)"/><path id="_Контур_29" data-name=" Контур 29" class="cls-31" d="M1074.32,474.25s-.37,6.3-.25,6.77,2.46.9,3.13,1.46-3.42,6.94-5.51,7.89-8.52-1.47-9-4.68c-.41-2.94,1.84-5.24,2.71-6a13.22,13.22,0,0,1,1.78,0l.18-3.05C1070.22,475.6,1074.32,474.25,1074.32,474.25Z" transform="translate(-413.01 0.41)"/><path id="_Контур_30" data-name=" Контур 30" class="cls-32" d="M1075.18,481.57c1.78.28,3.8,1.22,4.08,2.16a21,21,0,0,1-.51,10.52c-1.53,4.05-2.56,6.63-3.45,8.39,0,0-7.66,3.24-13.83-.56,0,0-.44-4.32-.46-6.67-5.7-5-.83-11.11,4-15.87a10.11,10.11,0,0,1,1.74,0s-4.32,5.1-1.31,8C1071.85,485.6,1073.13,482.72,1075.18,481.57Z" transform="translate(-413.01 0.41)"/><path id="_Контур_31" data-name=" Контур 31" class="cls-31" d="M1062.55,466.38h0c.64-4.05,3.55-7.11,7.74-6.86a8,8,0,0,1,4,14.73,8.42,8.42,0,0,1-.64,1.76c-1.48,1.73-5.4,2.82-6.71,2.83-1.08,0-2.09-1-3.14-2.76C1061.64,472.4,1062.2,468.38,1062.55,466.38Z" transform="translate(-413.01 0.41)"/><path class="cls-36" d="M1071.57,459.59c2.93.58,5.34,1.4,6.14,4.27.54,2,1.26,5.76.58,7.35l-.42,1.16-3.55,1.88s-1.66-1.38-1.14-5.4a3,3,0,0,0-.49-1.54,4.19,4.19,0,0,1-.5-1.22,4.62,4.62,0,0,0-2.29-2.49c-2.65-1.48-6.49-.2-7.05.34A7.69,7.69,0,0,1,1071.57,459.59Z" transform="translate(-413.01 0.41)"/><path id="_Контур_32" data-name=" Контур 32" class="cls-31" d="M1079.46,511c.66-4.11,1.9-6.77,1.32-9a81.9,81.9,0,0,0-5-13.3c-1.3-2.55-.9-4.32.44-5.34,1.52-1.08,3-.64,4.33,2.16,1.71,3.56,3.64,7.21,4.58,12.51a27.87,27.87,0,0,1-.13,10.34c-.58,3.69-1.75,5.76-3.15,9.22C1081.47,518.57,1078.9,514.5,1079.46,511Z" transform="translate(-413.01 0.41)"/><path class="cls-39" d="M1076.9,587.56c-1.48,1.2-3.79.37-3.9.48a61.89,61.89,0,0,1-5.4,4.15c-.93.72-2.37,1.7-2.11,3.1.46,2.5,4.46,1.73,6,1s2.73-2,4.16-2.92c1-.63,2-1,2.16-2.24C1077.89,590.31,1077.16,587.53,1076.9,587.56Z" transform="translate(-413.01 0.41)"/><path class="cls-40" d="M1077.77,590.57c-.2,1.23-1.18,1.58-2.17,2.16-1.44.9-2.72,2.16-4.23,3s-4.88,1.41-5.85-.38c.53,2.41,4.46,1.66,6,.9s2.73-2,4.16-2.92c1-.64,2-1,2.16-2.25A3.59,3.59,0,0,0,1077.77,590.57Z" transform="translate(-413.01 0.41)"/><path class="cls-39" d="M1066.49,585.48c-1.35,1.08-3.4.48-3.5.59a56.89,56.89,0,0,1-5,3.78c-.85.66-2.16,1.56-1.94,2.84.44,2.29,4.1,1.58,5.48.88s2.51-1.86,3.82-2.67c.93-.58,1.85-.88,2-2.06C1067.48,588.12,1066.74,585.45,1066.49,585.48Z" transform="translate(-413.01 0.41)"/><path class="cls-40" d="M1067.36,588.36c-.19,1.14-1.08,1.44-2,2-1.33.82-2.5,2-3.88,2.72s-4.47,1.28-5.41-.35c.49,2.16,4.09,1.51,5.41.82s2.5-1.86,3.81-2.67c.93-.58,1.85-.88,2-2.06A2.67,2.67,0,0,0,1067.36,588.36Z" transform="translate(-413.01 0.41)"/><path class="cls-31" d="M1058.51,516.51c.65-5.11,2.54-12.53,2.54-12.53a15.23,15.23,0,0,0,5.67,1.41,47.32,47.32,0,0,0,8.57-.84,55,55,0,0,0,3,4.68c1.47,2,4.32,6.48,3.64,14.36-.44,5.12-3.32,26.85-3.32,26.85a40.36,40.36,0,0,1,1.76,11.28,90.25,90.25,0,0,1-1.79,13.5l-1.71,12.34s-2.28,1.65-3.9.48l.21-12.08c-.2-3-.49-7.3-.69-10.09-.3-4.53-1.08-11.73-1.35-13.53s-.81-4.94-1.08-8.47-1.6-21.4-1.6-21.4l-.18,3.35s-.18,5.41-1,12.15-1.08,9.73-1.08,9.73a14.75,14.75,0,0,1,1.53,4.32c.14,1.45,1.8,13,.8,18.77l-2,14.79a3.88,3.88,0,0,1-3.51.47l-1.2-15c-.8-5.7-2.5-17.76-2.76-19.33a62.63,62.63,0,0,1-1-9.56C1057.71,535.72,1057.86,521.63,1058.51,516.51Z" transform="translate(-413.01 0.41)"/><path class="cls-41" d="M1075.3,502.67l4.4,8.84s6.72,9.84-.24,35.11l1.31,7.79s-13.17,8.46-22,0c0,0-3.06-23.36-1.43-34.12a121.65,121.65,0,0,1,4.11-18.3s2.16,2.39,13.26.81" transform="translate(-413.01 0.41)"/><path class="cls-35" d="M1083.2,490.52s-3.06,3.05-6.69,2.67l-1.74-6s-1.08-3.1,1.52-4.46S1081.68,484.44,1083.2,490.52Z" transform="translate(-413.01 0.41)"/><path class="cls-35" d="M1065,479.57s-3.5-1.08-7.21,6.69l1.39.83A58.74,58.74,0,0,1,1065,479.57Z" transform="translate(-413.01 0.41)"/></g><circle class="cls-43" cx="907.5" cy="86.88" r="8.99"/><circle class="cls-44" cx="893" cy="275.42" r="5.49"/><polygon class="cls-45" points="923.88 425.93 934.05 410.11 913.15 407.84 923.88 425.93"/><line class="cls-46" x1="842.36" y1="352.87" x2="833.18" y2="369.1"/><line class="cls-46" x1="829.63" y1="356.29" x2="845.86" y2="365.47"/><rect class="cls-47" x="1081.17" y="65.93" width="18.79" height="19.96" rx="1.46" transform="translate(-228.95 -534.7) rotate(30)"/><circle class="cls-48" cx="291.06" cy="51.47" r="5.44"/><rect class="cls-49" x="702.1" y="285.25" width="14.94" height="15.87" rx="2.28" transform="translate(888.3 -195.57) rotate(117.97)"/><path class="cls-49" d="M677.79,94.76c5.23.78,4.05,8.69,9.28,9.47s6.41-7.13,11.64-6.35,4,8.69,9.28,9.46,6.4-7.13,11.64-6.35,4,8.69,9.28,9.47" transform="translate(-413.01 0.41)"/><path class="cls-49" d="M1291.81,222.61c3-4.34,9.59.24,12.61-4.1s-3.54-8.91-.51-13.25,9.58.25,12.6-4.09-3.53-8.91-.51-13.25,9.59.24,12.62-4.1" transform="translate(-413.01 0.41)"/><polyline class="cls-49" points="781.9 463.16 783.88 472.45 791.49 466.76 793.48 476.05 801.09 470.36 803.09 479.65"/><polyline class="cls-49" points="784.55 454.87 786.53 464.15 794.14 458.46 796.13 467.75 803.74 462.06 805.74 471.36"/></svg>