<svg xmlns="http://www.w3.org/2000/svg" viewBox="0 0 372.1 389.26"><defs><style>.cls-1{fill:#b1b4c4;}.cls-2{fill:#e4e7f2;}.cls-3,.cls-5{fill:#d6d8e5;}.cls-4{fill:#fff;}.cls-5{opacity:0.4;isolation:isolate;}.cls-6{fill:#2b303f;}.cls-7{fill:#c3c6d1;}.cls-8{fill:#8319ce;}.cls-9{fill:#6211ab;}.cls-10{fill:#efefef;}.cls-11{fill:#2811ab;}.cls-12{fill:#002833;}</style></defs><g id="Layer_2" data-name="Layer 2"><g id="Layer_1-2" data-name="Layer 1"><path class="cls-1" d="M366.85,293.9,160.13,174.55c-2.9-1.67-5.25-6.16-5.25-10V4.61c0-3.86,2.35-5.64,5.25-4L366.85,120c2.9,1.67,5.25,6.16,5.25,10V289.9C372.1,293.8,369.75,295.58,366.85,293.9Z"/><polygon class="cls-1" points="367.92 295.55 370.21 294.23 369.21 287.44 367.92 295.55"/><path class="cls-1" d="M154.51,1.63l2.25-1.3L160,2.18s-3.45.52-3.53.5S154.51,1.63,154.51,1.63Z"/><path class="cls-2" d="M365,295,158.23,175.65c-2.9-1.68-5.25-6.17-5.25-10V5.71c0-3.87,2.35-5.64,5.25-4L365,121.09c2.9,1.67,5.25,6.17,5.25,10V291C370.21,294.89,367.86,296.67,365,295Z"/><path class="cls-3" d="M364.59,295.21,157.87,175.85c-2.9-1.67-5.25-6.16-5.25-10V5.92c0-3.87,2.35-5.65,5.25-4L364.59,121.3c2.9,1.67,5.25,6.16,5.25,10V291.24C369.84,295.1,367.49,296.88,364.59,295.21Z"/><path class="cls-4" d="M367,285.48,155.24,163.22l.11-156.66c0-1.61,1.13-2.26,2.52-1.46L364.59,124.46a5.51,5.51,0,0,1,2.52,4.35Z"/><path class="cls-5" d="M208.67,388.13,2,268.77c-2.9-1.67-2.53-4.59.82-6.53l138.48-80c3.35-1.93,8.41-2.14,11.31-.47L359.28,301.17c2.9,1.68,2.54,4.6-.81,6.53L220,387.7C216.67,389.59,211.58,389.8,208.67,388.13Z"/><path class="cls-1" d="M213.19,385.42,6.47,266.06c-2.9-1.67-2.54-4.59.81-6.53l138.49-80c3.34-1.93,8.41-2.14,11.31-.47L363.8,298.46c2.9,1.68,2.54,4.6-.81,6.53L224.51,385C221.16,386.88,216.09,387.09,213.19,385.42Z"/><polygon class="cls-1" points="365.76 301.38 365.76 297.57 362.52 298.68 364.68 301.84 365.76 301.38"/><path class="cls-2" d="M213.19,382.13,6.47,262.78c-2.9-1.67-2.54-4.6.81-6.53L145.77,176.3c3.34-1.94,8.41-2.15,11.31-.47L363.8,295.18c2.9,1.67,2.54,4.6-.81,6.53l-138.48,80C221.16,383.6,216.09,383.81,213.19,382.13Z"/><path class="cls-3" d="M213.19,381.63,6.47,262.27c-2.9-1.67-2.54-4.59.81-6.53l138.49-80c3.34-1.93,8.41-2.14,11.31-.47L363.8,294.67c2.9,1.68,2.54,4.6-.81,6.53l-138.48,80C221.16,383.09,216.09,383.3,213.19,381.63Z"/><path class="cls-6" d="M141.93,202.76l-9.63-5.56c-.78-.45-.68-1.24.22-1.77l9.19-5.3a3.44,3.44,0,0,1,3.06-.13l9.63,5.56c.78.45.69,1.25-.22,1.77l-9.19,5.3A3.37,3.37,0,0,1,141.93,202.76Z"/><path class="cls-6" d="M155.56,210.63l-9.63-5.56c-.78-.45-.69-1.25.22-1.77l9.19-5.3a3.37,3.37,0,0,1,3.06-.13l9.62,5.56c.79.45.69,1.24-.22,1.77l-9.18,5.3A3.43,3.43,0,0,1,155.56,210.63Z"/><path class="cls-6" d="M169.34,218.58,159.67,213c-.78-.46-.68-1.25.22-1.77l9.19-5.31a3.4,3.4,0,0,1,3.06-.12l9.63,5.55c.78.46.68,1.25-.22,1.77l-9.19,5.31A3.38,3.38,0,0,1,169.34,218.58Z"/><path class="cls-6" d="M182.81,226.36l-9.63-5.56c-.78-.45-.68-1.24.22-1.77l9.19-5.3a3.44,3.44,0,0,1,3.06-.13l9.63,5.56c.78.45.68,1.25-.22,1.77l-9.19,5.3A3.37,3.37,0,0,1,182.81,226.36Z"/><path class="cls-6" d="M196.43,234.23l-9.62-5.56c-.79-.45-.69-1.25.22-1.77l9.18-5.3a3.39,3.39,0,0,1,3.07-.13L208.9,227c.79.45.69,1.24-.22,1.77l-9.18,5.3A3.45,3.45,0,0,1,196.43,234.23Z"/><path class="cls-6" d="M210.06,242.09l-9.63-5.55c-.78-.46-.68-1.25.22-1.77l9.19-5.31a3.4,3.4,0,0,1,3.06-.12l9.63,5.55c.78.46.68,1.25-.22,1.77L213.12,242A3.4,3.4,0,0,1,210.06,242.09Z"/><path class="cls-6" d="M223.67,250l-9.61-5.6c-.79-.45-.69-1.24.22-1.77l9.18-5.3a3.46,3.46,0,0,1,3.07-.13l9.62,5.56c.79.45.69,1.25-.22,1.77l-9.18,5.3A3.38,3.38,0,0,1,223.67,250Z"/><path class="cls-6" d="M237.31,257.83l-9.64-5.56c-.79-.45-.69-1.25.22-1.77l9.18-5.3a3.37,3.37,0,0,1,3.06-.13l9.63,5.56c.79.45.69,1.24-.22,1.77l-9.19,5.3A3.42,3.42,0,0,1,237.31,257.83Z"/><path class="cls-6" d="M250.94,265.69l-9.63-5.55c-.78-.46-.68-1.25.22-1.77l9.19-5.3a3.37,3.37,0,0,1,3.06-.13l9.63,5.56c.78.45.68,1.24-.22,1.76L254,265.57A3.4,3.4,0,0,1,250.94,265.69Z"/><path class="cls-6" d="M264.56,273.56,254.94,268c-.79-.45-.69-1.24.22-1.77l9.18-5.3a3.39,3.39,0,0,1,3.07-.12l9.62,5.55c.79.46.69,1.25-.22,1.77l-9.18,5.3A3.39,3.39,0,0,1,264.56,273.56Z"/><path class="cls-6" d="M278.19,281.43l-9.63-5.56c-.78-.45-.68-1.24.22-1.77l9.19-5.3a3.44,3.44,0,0,1,3.06-.13l9.63,5.56c.78.45.68,1.24-.22,1.77l-9.19,5.3A3.43,3.43,0,0,1,278.19,281.43Z"/><path class="cls-6" d="M291.81,289.29l-9.62-5.55c-.79-.46-.69-1.25.22-1.77l9.18-5.3a3.39,3.39,0,0,1,3.07-.13l9.62,5.56c.79.45.69,1.24-.22,1.76l-9.18,5.31A3.42,3.42,0,0,1,291.81,289.29Z"/><path class="cls-6" d="M305.44,297.16l-9.62-5.56c-.79-.45-.69-1.24.22-1.76l9.18-5.31a3.4,3.4,0,0,1,3.06-.12l9.63,5.55c.78.46.69,1.25-.22,1.77L308.5,297A3.37,3.37,0,0,1,305.44,297.16Z"/><path class="cls-6" d="M325.67,308.82l-16.19-9.35c-.78-.45-.69-1.24.22-1.77l9.19-5.3a3.44,3.44,0,0,1,3.06-.13l16.19,9.35c.78.45.68,1.24-.22,1.77l-9.19,5.3A3.43,3.43,0,0,1,325.67,308.82Z"/><path class="cls-6" d="M148.94,222.05l-9.63-5.55c-.79-.46-.69-1.25.22-1.77l9.18-5.31a3.39,3.39,0,0,1,3.07-.12l9.62,5.55c.79.46.69,1.25-.22,1.77L152,221.93A3.4,3.4,0,0,1,148.94,222.05Z"/><path class="cls-6" d="M162.58,229.93,153,224.36c-.79-.46-.69-1.25.22-1.77l9.18-5.31a3.39,3.39,0,0,1,3.07-.12l9.62,5.55c.79.46.69,1.25-.22,1.77l-9.16,5.33A3.4,3.4,0,0,1,162.58,229.93Z"/><path class="cls-6" d="M176.23,237.81l-9.62-5.55c-.79-.46-.69-1.25.22-1.77l9.18-5.3a3.39,3.39,0,0,1,3.07-.13l9.62,5.56c.79.45.69,1.24-.22,1.76l-9.18,5.31A3.42,3.42,0,0,1,176.23,237.81Z"/><path class="cls-6" d="M189.88,245.69l-9.62-5.55c-.79-.46-.69-1.25.22-1.77l9.18-5.3a3.39,3.39,0,0,1,3.07-.13l9.62,5.56c.79.45.69,1.24-.22,1.76L193,245.57A3.42,3.42,0,0,1,189.88,245.69Z"/><path class="cls-6" d="M203.42,253.51,193.8,248c-.79-.45-.69-1.24.22-1.76l9.18-5.31a3.39,3.39,0,0,1,3.07-.12l9.62,5.55c.79.46.69,1.25-.22,1.77l-9.18,5.3A3.39,3.39,0,0,1,203.42,253.51Z"/><path class="cls-6" d="M217.07,261.36l-9.62-5.55c-.79-.46-.69-1.25.22-1.77l9.18-5.31a3.39,3.39,0,0,1,3.07-.12l9.62,5.55c.79.46.69,1.25-.22,1.77l-9.18,5.31A3.42,3.42,0,0,1,217.07,261.36Z"/><path class="cls-6" d="M230.72,269.27l-9.62-5.55c-.79-.46-.69-1.25.22-1.77l9.18-5.31a3.39,3.39,0,0,1,3.07-.12l9.62,5.55c.79.46.69,1.25-.22,1.77l-9.18,5.31A3.42,3.42,0,0,1,230.72,269.27Z"/><path class="cls-6" d="M244.37,277.15l-9.62-5.55c-.79-.46-.69-1.25.22-1.77l9.18-5.31a3.4,3.4,0,0,1,3.06-.12l9.63,5.55c.79.46.69,1.25-.22,1.77L247.44,277A3.42,3.42,0,0,1,244.37,277.15Z"/><path class="cls-6" d="M258,285l-9.62-5.55c-.79-.46-.69-1.25.22-1.77l9.18-5.31a3.4,3.4,0,0,1,3.06-.12l9.63,5.56c.78.45.69,1.24-.22,1.76l-9.19,5.31A3.4,3.4,0,0,1,258,285Z"/><path class="cls-6" d="M271.67,292.91,262,287.36c-.78-.46-.68-1.25.22-1.77l9.19-5.3a3.37,3.37,0,0,1,3.06-.13l9.63,5.56c.78.45.69,1.24-.22,1.76l-9.19,5.31A3.4,3.4,0,0,1,271.67,292.91Z"/><path class="cls-6" d="M285.32,300.79l-9.65-5.55c-.78-.46-.68-1.25.22-1.77l9.19-5.3a3.37,3.37,0,0,1,3.06-.13l9.63,5.56c.78.45.68,1.24-.22,1.76l-9.19,5.31A3.39,3.39,0,0,1,285.32,300.79Z"/><path class="cls-6" d="M299,308.68l-9.63-5.56c-.78-.46-.68-1.25.22-1.77l9.19-5.3a3.37,3.37,0,0,1,3.06-.13l9.63,5.56c.78.45.68,1.24-.22,1.77l-9.19,5.3A3.43,3.43,0,0,1,299,308.68Z"/><path class="cls-6" d="M135.29,214.17l-16.19-9.34c-.79-.46-.69-1.25.22-1.77l9.18-5.3a3.39,3.39,0,0,1,3.07-.13L147.75,207c.79.46.69,1.25-.22,1.77l-9.18,5.31A3.4,3.4,0,0,1,135.29,214.17Z"/><path class="cls-6" d="M325,309.36l-9.62-5.55a3.2,3.2,0,0,0-2.86,0l-9.71,5.55a.87.87,0,0,0,0,1.65l.77.44a.81.81,0,0,1,.52,1,.8.8,0,0,1-.52.51l-10.26,5.92c-.8.46-.8,1.2,0,1.65l6.13,3.54a3.2,3.2,0,0,0,2.86,0l9.59-5.54,2-1.15,1.43-.82,1.44-.83L325,311A.84.84,0,0,0,325,309.36Z"/><path class="cls-6" d="M89.16,233.29l-9.63-5.56c-.78-.45-.68-1.24.22-1.77l9.19-5.3a3.44,3.44,0,0,1,3.06-.13l9.63,5.56c.78.46.68,1.25-.22,1.77l-9.19,5.3A3.37,3.37,0,0,1,89.16,233.29Z"/><path class="cls-6" d="M102.74,241.14l-9.62-5.56c-.79-.46-.69-1.25.22-1.77l9.18-5.3a3.39,3.39,0,0,1,3.07-.13l9.62,5.56c.79.45.69,1.24-.22,1.77l-9.18,5.3A3.45,3.45,0,0,1,102.74,241.14Z"/><path class="cls-6" d="M116.33,249l-9.66-5.56c-.79-.45-.69-1.24.22-1.77l9.18-5.3a3.44,3.44,0,0,1,3.06-.13l9.63,5.56c.79.45.69,1.25-.22,1.77l-9.18,5.3A3.43,3.43,0,0,1,116.33,249Z"/><path class="cls-6" d="M232,315.78l-9.63-5.55c-.78-.46-.68-1.25.22-1.77l9.19-5.3a3.37,3.37,0,0,1,3.06-.13l9.63,5.56c.78.45.69,1.24-.22,1.76l-9.19,5.31A3.4,3.4,0,0,1,232,315.78Z"/><path class="cls-6" d="M245.67,323.63,236,318.07c-.78-.45-.68-1.24.22-1.77l9.19-5.3a3.44,3.44,0,0,1,3.06-.13l9.63,5.56c.78.45.68,1.25-.22,1.77l-9.19,5.3A3.37,3.37,0,0,1,245.67,323.63Z"/><path class="cls-6" d="M259.21,331.47l-9.62-5.55c-.79-.46-.69-1.25.22-1.77l9.18-5.31a3.39,3.39,0,0,1,3.07-.12l9.62,5.55c.79.46.69,1.25-.22,1.77l-9.18,5.32A3.42,3.42,0,0,1,259.21,331.47Z"/><path class="cls-6" d="M272.8,339.36l-9.62-5.56c-.79-.45-.69-1.24.22-1.77l9.18-5.3a3.44,3.44,0,0,1,3.06-.13l9.63,5.56c.79.45.69,1.24-.22,1.77l-9.18,5.3A3.45,3.45,0,0,1,272.8,339.36Z"/><path class="cls-6" d="M133.42,258.84l-13.13-7.57c-.78-.46-.68-1.25.22-1.77l9.19-5.3a3.37,3.37,0,0,1,3.06-.13l13.13,7.58c.78.45.68,1.24-.22,1.76l-9.19,5.31A3.4,3.4,0,0,1,133.42,258.84Z"/><path class="cls-6" d="M218.45,307.94l-13.12-7.58c-.79-.45-.69-1.24.22-1.77l9.18-5.3a3.46,3.46,0,0,1,3.07-.13l13.12,7.58c.79.45.69,1.25-.22,1.77l-9.18,5.3A3.39,3.39,0,0,1,218.45,307.94Z"/><path class="cls-6" d="M201.37,298.07l-64-36.94c-.78-.45-.69-1.24.22-1.77l9.19-5.3a3.44,3.44,0,0,1,3.06-.13l64,36.95c.79.45.69,1.24-.22,1.76L204.44,298A3.39,3.39,0,0,1,201.37,298.07Z"/><path class="cls-6" d="M139.44,231.82l-9.63-5.56c-.78-.45-.69-1.24.22-1.77l9.19-5.3a3.44,3.44,0,0,1,3.06-.13l9.62,5.56c.79.45.69,1.25-.22,1.77l-9.18,5.3A3.37,3.37,0,0,1,139.44,231.82Z"/><path class="cls-6" d="M153.05,239.68l-9.63-5.56c-.78-.45-.69-1.25.22-1.77l9.19-5.3a3.37,3.37,0,0,1,3.06-.13l9.62,5.56c.79.45.69,1.24-.22,1.77l-9.18,5.3A3.43,3.43,0,0,1,153.05,239.68Z"/><path class="cls-6" d="M166.67,247.53,157,242c-.78-.46-.69-1.25.22-1.77l9.19-5.3a3.37,3.37,0,0,1,3.06-.13l9.63,5.56c.78.45.68,1.24-.22,1.77l-9.19,5.3A3.4,3.4,0,0,1,166.67,247.53Z"/><path class="cls-6" d="M180.27,255.36l-9.6-5.52c-.78-.46-.68-1.25.22-1.77l9.19-5.31a3.4,3.4,0,0,1,3.06-.12l9.63,5.55c.78.46.68,1.25-.22,1.77l-9.19,5.31A3.4,3.4,0,0,1,180.27,255.36Z"/><path class="cls-6" d="M193.88,263.25l-9.63-5.56c-.78-.45-.68-1.24.22-1.76l9.19-5.31a3.4,3.4,0,0,1,3.06-.12l9.63,5.55c.78.46.68,1.25-.22,1.77l-9.19,5.3A3.37,3.37,0,0,1,193.88,263.25Z"/><path class="cls-6" d="M207.49,271.11l-9.63-5.56c-.78-.45-.68-1.24.22-1.77l9.19-5.3a3.44,3.44,0,0,1,3.06-.13l9.63,5.56c.78.45.68,1.25-.22,1.77l-9.19,5.3A3.37,3.37,0,0,1,207.49,271.11Z"/><path class="cls-6" d="M221.1,279l-9.63-5.56c-.78-.45-.68-1.25.22-1.77l9.19-5.3a3.37,3.37,0,0,1,3.06-.13l9.63,5.56c.78.45.68,1.24-.22,1.77l-9.19,5.3A3.43,3.43,0,0,1,221.1,279Z"/><path class="cls-6" d="M234.67,286.83,225,281.27c-.78-.46-.68-1.25.22-1.77l9.19-5.3a3.37,3.37,0,0,1,3.06-.13l9.63,5.56c.78.45.69,1.24-.22,1.77l-9.19,5.3A3.43,3.43,0,0,1,234.67,286.83Z"/><path class="cls-6" d="M248.32,294.68l-9.65-5.55c-.79-.46-.69-1.25.22-1.77l9.18-5.31a3.4,3.4,0,0,1,3.06-.12l9.63,5.55c.78.46.69,1.25-.22,1.77l-9.19,5.31A3.4,3.4,0,0,1,248.32,294.68Z"/><path class="cls-6" d="M261.93,302.54,252.31,297c-.79-.45-.69-1.24.22-1.76l9.18-5.31a3.4,3.4,0,0,1,3.06-.12l9.63,5.55c.79.46.69,1.25-.22,1.77l-9.18,5.3A3.39,3.39,0,0,1,261.93,302.54Z"/><path class="cls-6" d="M275.54,310.36l-9.62-5.56c-.79-.45-.69-1.24.22-1.77l9.18-5.3a3.46,3.46,0,0,1,3.07-.13l9.62,5.56c.79.45.69,1.25-.22,1.77l-9.18,5.3A3.39,3.39,0,0,1,275.54,310.36Z"/><path class="cls-6" d="M289.15,318.26l-9.62-5.56c-.79-.45-.69-1.24.22-1.77l9.18-5.3a3.46,3.46,0,0,1,3.07-.13l9.67,5.56c.79.45.69,1.24-.22,1.77l-9.18,5.3A3.43,3.43,0,0,1,289.15,318.26Z"/><path class="cls-6" d="M125.83,224l-19.91-11.49c-.79-.46-.69-1.25.22-1.77l9.18-5.3a3.39,3.39,0,0,1,3.07-.13l19.9,11.49c.79.46.69,1.25-.22,1.77l-9.18,5.3A3.37,3.37,0,0,1,125.83,224Z"/><path class="cls-6" d="M119.47,235.54,109.85,230c-.79-.46-.69-1.25.22-1.77l9.18-5.31a3.39,3.39,0,0,1,3.07-.12l9.62,5.55c.79.46.69,1.25-.22,1.77l-9.18,5.31A3.42,3.42,0,0,1,119.47,235.54Z"/><path class="cls-6" d="M133.08,243.36l-9.62-5.56c-.79-.45-.69-1.24.22-1.77l9.18-5.3a3.44,3.44,0,0,1,3.06-.13l9.63,5.56c.78.45.69,1.25-.22,1.77l-9.19,5.3A3.37,3.37,0,0,1,133.08,243.36Z"/><path class="cls-6" d="M146.67,251.26,137,245.7c-.78-.45-.68-1.25.22-1.77l9.19-5.3a3.37,3.37,0,0,1,3.06-.13l9.63,5.56c.78.45.68,1.24-.22,1.77l-9.19,5.3A3.43,3.43,0,0,1,146.67,251.26Z"/><path class="cls-6" d="M160.3,259.11l-9.63-5.55c-.78-.46-.68-1.25.22-1.77l9.19-5.31a3.4,3.4,0,0,1,3.06-.12l9.63,5.55c.78.46.68,1.25-.22,1.77L163.36,259A3.4,3.4,0,0,1,160.3,259.11Z"/><path class="cls-6" d="M173.91,267l-9.63-5.56c-.78-.45-.69-1.24.22-1.77l9.17-5.28a3.44,3.44,0,0,1,3.06-.13l9.62,5.56c.79.45.69,1.25-.22,1.77l-9.18,5.3A3.39,3.39,0,0,1,173.91,267Z"/><path class="cls-6" d="M187.51,274.83l-9.62-5.56c-.79-.45-.69-1.25.22-1.77l9.18-5.3a3.39,3.39,0,0,1,3.07-.13l9.62,5.56c.79.45.69,1.24-.22,1.77l-9.18,5.3A3.45,3.45,0,0,1,187.51,274.83Z"/><path class="cls-6" d="M201.12,282.68l-9.62-5.55c-.79-.46-.69-1.25.22-1.77l9.18-5.31a3.39,3.39,0,0,1,3.07-.12l9.62,5.55c.79.46.69,1.25-.22,1.77l-9.18,5.31A3.42,3.42,0,0,1,201.12,282.68Z"/><path class="cls-6" d="M214.73,290.54,205.11,285c-.79-.45-.69-1.24.22-1.77l9.18-5.3a3.44,3.44,0,0,1,3.06-.13l9.63,5.56c.78.46.69,1.25-.22,1.77l-9.19,5.3A3.37,3.37,0,0,1,214.73,290.54Z"/><path class="cls-6" d="M228.34,298.36l-9.67-5.52c-.78-.45-.68-1.25.22-1.77l9.19-5.3a3.37,3.37,0,0,1,3.06-.13l9.63,5.56c.78.45.68,1.24-.22,1.77l-9.19,5.3A3.41,3.41,0,0,1,228.34,298.36Z"/><path class="cls-6" d="M242,306.25l-9.63-5.55c-.78-.46-.68-1.25.22-1.77l9.19-5.3a3.37,3.37,0,0,1,3.06-.13l9.63,5.56c.78.45.68,1.24-.22,1.76L245,306.13A3.4,3.4,0,0,1,242,306.25Z"/><path class="cls-6" d="M255.56,314.11l-9.63-5.56c-.78-.45-.69-1.24.22-1.77l9.19-5.3a3.44,3.44,0,0,1,3.06-.13l9.62,5.56c.79.46.69,1.25-.22,1.77l-9.18,5.3A3.37,3.37,0,0,1,255.56,314.11Z"/><path class="cls-6" d="M286,331.69l-26.47-15.28c-.79-.45-.69-1.24.22-1.77l9.18-5.3a3.46,3.46,0,0,1,3.07-.13l26.47,15.28c.78.46.68,1.25-.22,1.77l-9.19,5.31A3.4,3.4,0,0,1,286,331.69Z"/><path class="cls-6" d="M105.86,227.69l-13.12-7.58c-.79-.45-.69-1.25.22-1.77l9.18-5.3a3.39,3.39,0,0,1,3.07-.13l13.12,7.58c.79.45.69,1.24-.22,1.77l-9.18,5.3A3.45,3.45,0,0,1,105.86,227.69Z"/><path class="cls-6" d="M339.3,300.92,146,189.36c-.78-.45-.69-1.25.22-1.77l4.59-2.65a3.46,3.46,0,0,1,3.07-.13L347.18,296.36c.78.45.68,1.24-.22,1.77l-4.6,2.65A3.4,3.4,0,0,1,339.3,300.92Z"/><path class="cls-1" d="M219.57,313.61a2.89,2.89,0,0,1-1.33,1.39l-53.19,30.7a6.54,6.54,0,0,1-5.89.25L68.27,293.47a2.08,2.08,0,0,1-.92-1c-.33-.8.13-1.74,1.34-2.44l53.19-30.67a6.57,6.57,0,0,1,5.89-.24l90.9,52.48A1.57,1.57,0,0,1,219.57,313.61Z"/><path class="cls-7" d="M219.57,313.61a2.89,2.89,0,0,1-1.33,1.39l-53.19,30.7a6.54,6.54,0,0,1-5.89.25L68.27,293.47a2.08,2.08,0,0,1-.92-1,3,3,0,0,1,1.32-1.34l53.19-30.7a6.54,6.54,0,0,1,5.89-.25l90.92,52.48A2,2,0,0,1,219.57,313.61Z"/><path class="cls-6" d="M354,292.46,160.74,180.88a3.44,3.44,0,0,1-1.42-2.72v-2.27c0-1,.64-1.53,1.42-1.08L354,286.36a3.36,3.36,0,0,1,1.42,2.72v2.28C355.43,292.43,354.8,292.91,354,292.46Z"/><path class="cls-4" d="M367.42,285.25,155.66,163l.11-156.66c0-1.61,1.13-2.26,2.52-1.46L365,124.23a5.56,5.56,0,0,1,2.52,4.35Z"/><polygon class="cls-8" points="196.72 164.25 325.72 238.73 261.22 163.39 196.72 164.25"/><polygon class="cls-9" points="196.72 88.02 261.22 163.39 196.72 164.25 196.72 88.02"/><polygon class="cls-9" points="325.72 238.73 261.22 163.39 325.72 162.5 325.72 238.73"/><polygon class="cls-10" points="208.39 55.81 208.39 101.56 261.28 163.48 314.08 162.72 314.08 116.81 208.39 55.81"/><polygon class="cls-11" points="196.72 88.02 208.35 85.95 208.35 101.61 196.72 88.02"/><polygon class="cls-11" points="325.76 162.52 314.13 147.01 314.13 162.68 325.76 162.52"/><path class="cls-12" d="M270.74,143.76c-3.41-.17-6.9-1.5-11.05-3.9-10.18-5.88-18.81-18.32-18.81-30.24,0-12.8,8.87-18.73,22.66-10.77,10.8,6.24,18.06,18,18.06,28.38,0,9.31-5.22,11.76-11.05,8.4a9.08,9.08,0,0,1-4.59-8.12l-.24-.14c-2.18,2.41-5.05,2.55-8.75.41a14.22,14.22,0,0,1-6.72-11.7c0-7.7,6.09-11.2,14.72-6.22a31.62,31.62,0,0,1,6.65,5.15l-2.11,10c-.93,4.19-.19,6.79,1.85,8,3.17,1.89,6.71-.28,6.71-7.5,0-9-5.4-18.58-15-24.13-10.12-5.85-18.63-2.75-18.63,9.85,0,10.36,6.78,20.68,16,26,3.55,2,6.84,3.2,9.38,3.24ZM267.33,115a20.16,20.16,0,0,0-3.11-2.23c-5.46-3.16-9.88-.54-9.88,5.46a8.17,8.17,0,0,0,4.1,7.09c3.61,2.08,6.89-.62,7.58-4.08Z"/></g></g></svg>