<svg xmlns="http://www.w3.org/2000/svg" viewBox="0 0 256.16 301.71"><defs><style>.cls-1{fill:#9c1218;}.cls-2{fill:#cf181f;}.cls-3{fill:#2a2a2a;}.cls-4{fill:#292828;}.cls-5{fill:#343333;}.cls-6{fill:#454343;}</style></defs><g id="Layer_2" data-name="Layer 2"><g id="Layer_1-2" data-name="Layer 1"><path class="cls-1" d="M243.48,102.08q.65,0,1.29,0h.51c.54,0,1.07.08,1.58.16H247a15.37,15.37,0,0,1,1.56.31l.5.14c.27.07.53.15.79.24l.51.19.72.31c.24.11.49.22.71.34L215.28,84l-.45-.23-.27-.11-.72-.31-.51-.19c-.25-.09-.52-.16-.79-.24l-.34-.11-.16,0c-.51-.12-1-.23-1.56-.31h-.09c-.51-.08-1-.12-1.57-.15l-.52,0c-.43,0-.86,0-1.29,0l-.54,0c-.6,0-1.21.08-1.83.17L16,109c-.56.07-1.1.17-1.64.29l-.53.13c-.35.08-.71.17-1.06.27l-.6.19-.93.32c-.21.07-.41.16-.61.24s-.57.23-.86.36c-.09,0-.2.08-.3.13l-.27.14-.9.47-.5.27q-.48.28-.93.6l-.3.18-.08.06-.3.22c-.24.17-.47.35-.7.53l-.34.29-.34.29c-.06,0-.1.1-.15.15q-.5.45-.93.93l-.14.14,0,0c-.3.35-.58.7-.84,1.06l0,0c-.06.08-.1.18-.16.26a8.65,8.65,0,0,0-.47.76l-.07.11c0,.09-.07.18-.12.27-.13.26-.25.52-.35.78a1.76,1.76,0,0,0-.09.2c-.06.15-.1.31-.15.46s0,.09,0,.14a7.21,7.21,0,0,0-.21.92l0,.21a7.59,7.59,0,0,0-.07,1L0,273.42a6.78,6.78,0,0,0,1.17,3.88,9.11,9.11,0,0,0,3.24,2.84L40.88,300c-2.74-1.49-4.43-3.85-4.41-6.72l.91-152.06a7.45,7.45,0,0,1,.07-.95l0-.21a7.21,7.21,0,0,1,.21-.92c0-.05,0-.09,0-.14q.1-.33.24-.66a7.75,7.75,0,0,1,.35-.78c.07-.13.12-.26.19-.38a8.65,8.65,0,0,1,.47-.76l.2-.31c.26-.36.54-.71.84-1.06l.17-.18q.44-.48.93-.93c.16-.15.32-.3.49-.44l.34-.29c.23-.18.46-.36.7-.53l.3-.22c.12-.09.25-.16.38-.25.3-.2.61-.4.93-.59l.5-.27c.3-.17.6-.32.9-.47l.57-.27.86-.37.61-.23c.3-.11.61-.22.93-.32l.6-.19c.35-.1.7-.19,1.06-.27l.53-.13c.54-.12,1.08-.22,1.64-.3l188.65-26.51c.62-.09,1.23-.14,1.83-.17Z"/><path class="cls-2" d="M241.11,102.27c8.34-1.17,15.08,2.52,15.05,8.24l-.91,152.06c0,5.7-6.78,11.25-15.09,12.41L51.51,301.5c-8.34,1.17-15.08-2.52-15-8.24l.91-152.06c0-5.69,6.78-11.25,15.08-12.42Z"/><path class="cls-3" d="M145.24,154.83a12.36,12.36,0,0,1,1.73-.12c6.94,0,12.51,6.19,13.22,14.72.68,8.24-3.05,16.13-8.62,20.2l5.15,43c.22,2-1,3.9-2.63,4.13l-18.45,2.59c-1.61.23-2.84-1.38-2.59-3.39l5.54-44.51c-5.07-2.3-8.57-8.24-8.54-15.72C130.1,165.36,136.9,156,145.24,154.83Z"/><path class="cls-4" d="M180.92,29a28.5,28.5,0,0,0-6.48-4.79L161.05,17a28.8,28.8,0,0,1,6.48,4.79c9.14,9,8.72,21.39,8.71,21.88l-.11,51.08L189.52,102l.1-51.08C189.64,50.41,190.06,38.05,180.92,29Z"/><path class="cls-5" d="M167.08,5.88c-.49-.27-1-.53-1.49-.78l-.24-.1-1.06-.49-1-.44-1.11-.44c-.34-.13-.68-.27-1-.39S160.4,3,160,2.85L159,2.5c-.39-.12-.8-.23-1.21-.34l-.9-.26-.15,0c-.95-.25-1.92-.47-2.92-.66L153,1.08c-.8-.15-1.61-.28-2.43-.4l-.87-.12c-1.05-.13-2.11-.25-3.2-.34h-.19c-1-.08-2.09-.13-3.16-.17l-1,0c-.92,0-1.85,0-2.79,0h-.76c-1.18,0-2.38.08-3.59.15l-.86.06c-1,.07-2,.15-3,.25l-1.07.1c-1.28.14-2.56.29-3.88.48s-2.56.38-3.81.6l-1.23.23c-.83.16-1.65.31-2.46.49l-1.41.31-2.17.52-1.44.37c-.68.19-1.35.37-2,.57l-1.42.43q-1,.3-1.92.63L107,5.67l-1.87.7-1.28.51c-.63.26-1.25.53-1.87.81-.38.17-.77.33-1.15.51l-.31.14c-.82.38-1.62.78-2.41,1.2l-.34.18c-.78.41-1.55.84-2.3,1.28l-.81.49c-.6.36-1.19.73-1.77,1.12l-.79.52c-.15.1-.31.19-.46.3s-.51.38-.77.57c-.54.39-1.08.78-1.61,1.18l-1.1.88c-.5.41-1,.83-1.48,1.25l-.54.46-.59.56c-.35.32-.7.65-1,1s-.77.77-1.15,1.16-.65.69-1,1c-.15.16-.31.31-.46.48s-.52.62-.78.93l-.57.67c-.59.73-1.17,1.48-1.72,2.24l-.45.63-.14.21q-.75,1.09-1.44,2.19l-.19.32c-.46.76-.9,1.51-1.31,2.27v0l-.15.28L74.61,33l-.26.54c-.16.33-.31.66-.46,1s-.18.39-.26.58-.28.64-.41,1L73,36.6c-.14.35-.27.69-.4,1,0,.12-.09.24-.13.35l0,.09c-.21.57-.4,1.14-.59,1.69l-.12.4c-.15.46-.28.91-.41,1.36,0,.13-.08.26-.11.39-.15.54-.29,1.08-.42,1.6,0,.11,0,.21-.08.31-.1.44-.2.88-.29,1.31,0,.14-.06.27-.08.4-.11.51-.2,1-.29,1.5a.77.77,0,0,0,0,.15q-.12.68-.21,1.32c0,.13,0,.25,0,.38-.07.44-.12.87-.17,1.3a.17.17,0,0,1,0,.07c0,.45-.09.88-.12,1.31l0,.33c0,.35-.05.7-.07,1a1.27,1.27,0,0,0,0,.2c0,.38,0,.75,0,1.11a2.44,2.44,0,0,0,0,.27c0,.29,0,.56,0,.83v.22c0,.32,0,.62,0,.91v.18c0,.23,0,.46,0,.67v.19c0,.24,0,.47,0,.68v.09c0,.18,0,.34,0,.49a.66.66,0,0,0,0,.14c0,.15,0,.3,0,.42l-.09,50.39L82.72,117l.09-50.39q0-.18,0-.42a.61.61,0,0,1,0-.14c0-.14,0-.3,0-.48v-.1c0-.21,0-.43,0-.67v-.2c0-.21,0-.43,0-.66v-.19c0-.28,0-.58,0-.9v-.23c0-.27,0-.54,0-.83a2.26,2.26,0,0,1,0-.26c0-.36,0-.73,0-1.12,0-.07,0-.14,0-.2,0-.33,0-.68.07-1l0-.33c0-.42.07-.86.12-1.3,0,0,0-.06,0-.08,0-.42.1-.86.16-1.3l.06-.38c.06-.43.13-.87.21-1.31a.77.77,0,0,1,0-.15c.08-.49.18-1,.28-1.5l.09-.41c.09-.43.19-.86.29-1.31,0-.1,0-.2.08-.3.12-.53.26-1.07.42-1.61,0-.13.07-.26.11-.38.13-.45.26-.91.41-1.37l.12-.39c.18-.56.38-1.12.59-1.69.05-.15.11-.3.16-.44.13-.35.26-.69.4-1,.07-.18.15-.37.23-.55s.27-.64.41-1l.25-.57c.15-.33.31-.67.47-1s.17-.36.26-.53c.2-.41.41-.81.62-1.22a3,3,0,0,0,.16-.31c.41-.75.85-1.51,1.31-2.27l.19-.32c.45-.73.94-1.46,1.44-2.19l.59-.84c.55-.76,1.13-1.5,1.72-2.23l.57-.68q.6-.72,1.23-1.41c.32-.35.65-.69,1-1s.76-.78,1.14-1.16l1-1,1.13-1c.48-.42,1-.83,1.48-1.24s.73-.6,1.1-.88c.53-.41,1.07-.8,1.61-1.19s.81-.59,1.23-.87l.79-.52c.58-.38,1.17-.76,1.77-1.12l.81-.49c.75-.44,1.52-.86,2.3-1.28l.34-.18c.88-.46,1.8-.91,2.72-1.34l1.15-.51c.62-.27,1.24-.55,1.87-.81l1.28-.5,1.87-.71,1.37-.47c.63-.22,1.27-.42,1.92-.63l1.42-.43,2-.56,1.44-.38c.71-.18,1.44-.35,2.17-.51l1.4-.32,2.48-.49,1.22-.23q1.88-.33,3.81-.6c1.32-.19,2.61-.34,3.88-.47l1.07-.11c1-.1,2-.18,3-.25l.86-.06c1.21-.07,2.41-.12,3.58-.14h.77c.94,0,1.87,0,2.79,0l1,0c1.07,0,2.13.08,3.17.16l.18,0c1.09.08,2.15.2,3.2.33L164,8c.82.12,1.63.25,2.43.4l.73.13c1,.2,2,.42,2.92.66l1,.29c.41.11.82.22,1.21.34l1,.35c.39.13.79.25,1.17.39l1,.39,1.12.44,1,.44,1.06.49c.59.28,1.17.57,1.73.88Z"/><path class="cls-6" d="M189.23,19.69C178.59,9,161.93,5.2,139.68,8.33,118,11.38,102,19.73,92.31,33.11a51.3,51.3,0,0,0-9.5,33.49L82.72,117l11.22-1.58L94,64.67v-.42l0-.38a37.39,37.39,0,0,1,6.89-24.15c7.49-10.23,20.54-16.71,38.79-19.28,18.93-2.66,32.81.22,41.26,8.59,9.14,9,8.72,21.38,8.7,21.87l-.1,51.08,11.22-1.58.09-50.62C200.91,47.62,201,31.53,189.23,19.69Z"/></g></g></svg>